solid OpenSCAD_Model
  facet normal 1 -0 0
    outer loop
      vertex 0 4.45 2
      vertex 0 31.5 0
      vertex 0 31.5 2
    endloop
  endfacet
  facet normal 1 0 0
    outer loop
      vertex 0 31.5 0
      vertex 0 4.45 2
      vertex 0 4.45 0
    endloop
  endfacet
  facet normal -1 0 0
    outer loop
      vertex 26.16 4.45 0
      vertex 26.16 31.5 2
      vertex 26.16 31.5 0
    endloop
  endfacet
  facet normal -1 -0 0
    outer loop
      vertex 26.16 31.5 2
      vertex 26.16 4.45 0
      vertex 26.16 4.45 2
    endloop
  endfacet
  facet normal 0 -1 0
    outer loop
      vertex 6.99 35.95 0
      vertex 19.17 35.95 2
      vertex 6.99 35.95 2
    endloop
  endfacet
  facet normal 0 -1 -0
    outer loop
      vertex 19.17 35.95 2
      vertex 6.99 35.95 0
      vertex 19.17 35.95 0
    endloop
  endfacet
  facet normal 0 1 -0
    outer loop
      vertex 19.17 0 0
      vertex 6.99 0 2
      vertex 19.17 0 2
    endloop
  endfacet
  facet normal 0 1 0
    outer loop
      vertex 6.99 0 2
      vertex 19.17 0 0
      vertex 6.99 0 0
    endloop
  endfacet
  facet normal 1 -0 0
    outer loop
      vertex 6.99 0 2
      vertex 6.99 4.45 0
      vertex 6.99 4.45 2
    endloop
  endfacet
  facet normal 1 0 0
    outer loop
      vertex 6.99 4.45 0
      vertex 6.99 0 2
      vertex 6.99 0 0
    endloop
  endfacet
  facet normal 0 1 -0
    outer loop
      vertex 6.99 4.45 0
      vertex 0 4.45 2
      vertex 6.99 4.45 2
    endloop
  endfacet
  facet normal 0 1 0
    outer loop
      vertex 0 4.45 2
      vertex 6.99 4.45 0
      vertex 0 4.45 0
    endloop
  endfacet
  facet normal -1 0 0
    outer loop
      vertex 19.17 0 0
      vertex 19.17 4.45 2
      vertex 19.17 4.45 0
    endloop
  endfacet
  facet normal -1 -0 0
    outer loop
      vertex 19.17 4.45 2
      vertex 19.17 0 0
      vertex 19.17 0 2
    endloop
  endfacet
  facet normal 0 1 -0
    outer loop
      vertex 26.16 4.45 0
      vertex 19.17 4.45 2
      vertex 26.16 4.45 2
    endloop
  endfacet
  facet normal 0 1 0
    outer loop
      vertex 19.17 4.45 2
      vertex 26.16 4.45 0
      vertex 19.17 4.45 0
    endloop
  endfacet
  facet normal 1 -0 0
    outer loop
      vertex 6.99 31.5 2
      vertex 6.99 35.95 0
      vertex 6.99 35.95 2
    endloop
  endfacet
  facet normal 1 0 0
    outer loop
      vertex 6.99 35.95 0
      vertex 6.99 31.5 2
      vertex 6.99 31.5 0
    endloop
  endfacet
  facet normal 0 -1 0
    outer loop
      vertex 0 31.5 0
      vertex 6.99 31.5 2
      vertex 0 31.5 2
    endloop
  endfacet
  facet normal 0 -1 -0
    outer loop
      vertex 6.99 31.5 2
      vertex 0 31.5 0
      vertex 6.99 31.5 0
    endloop
  endfacet
  facet normal -1 0 0
    outer loop
      vertex 19.17 31.5 0
      vertex 19.17 35.95 2
      vertex 19.17 35.95 0
    endloop
  endfacet
  facet normal -1 -0 0
    outer loop
      vertex 19.17 35.95 2
      vertex 19.17 31.5 0
      vertex 19.17 31.5 2
    endloop
  endfacet
  facet normal 0 -1 0
    outer loop
      vertex 19.17 31.5 0
      vertex 26.16 31.5 2
      vertex 19.17 31.5 2
    endloop
  endfacet
  facet normal 0 -1 -0
    outer loop
      vertex 26.16 31.5 2
      vertex 19.17 31.5 0
      vertex 26.16 31.5 0
    endloop
  endfacet
  facet normal 1 -0 0
    outer loop
      vertex 40 4.45 2
      vertex 40 37.85 0
      vertex 40 37.85 2
    endloop
  endfacet
  facet normal 1 0 0
    outer loop
      vertex 40 37.85 0
      vertex 40 4.45 2
      vertex 40 4.45 0
    endloop
  endfacet
  facet normal -1 0 0
    outer loop
      vertex 66.16 4.45 0
      vertex 66.16 37.85 2
      vertex 66.16 37.85 0
    endloop
  endfacet
  facet normal -1 -0 0
    outer loop
      vertex 66.16 37.85 2
      vertex 66.16 4.45 0
      vertex 66.16 4.45 2
    endloop
  endfacet
  facet normal 0 -1 0
    outer loop
      vertex 46.99 42.3 0
      vertex 59.17 42.3 2
      vertex 46.99 42.3 2
    endloop
  endfacet
  facet normal 0 -1 -0
    outer loop
      vertex 59.17 42.3 2
      vertex 46.99 42.3 0
      vertex 59.17 42.3 0
    endloop
  endfacet
  facet normal 0 1 -0
    outer loop
      vertex 59.17 0 0
      vertex 46.99 0 2
      vertex 59.17 0 2
    endloop
  endfacet
  facet normal 0 1 0
    outer loop
      vertex 46.99 0 2
      vertex 59.17 0 0
      vertex 46.99 0 0
    endloop
  endfacet
  facet normal 1 -0 0
    outer loop
      vertex 46.99 0 2
      vertex 46.99 4.45 0
      vertex 46.99 4.45 2
    endloop
  endfacet
  facet normal 1 0 0
    outer loop
      vertex 46.99 4.45 0
      vertex 46.99 0 2
      vertex 46.99 0 0
    endloop
  endfacet
  facet normal 0 1 -0
    outer loop
      vertex 46.99 4.45 0
      vertex 40 4.45 2
      vertex 46.99 4.45 2
    endloop
  endfacet
  facet normal 0 1 0
    outer loop
      vertex 40 4.45 2
      vertex 46.99 4.45 0
      vertex 40 4.45 0
    endloop
  endfacet
  facet normal -1 0 0
    outer loop
      vertex 59.17 0 0
      vertex 59.17 4.45 2
      vertex 59.17 4.45 0
    endloop
  endfacet
  facet normal -1 -0 0
    outer loop
      vertex 59.17 4.45 2
      vertex 59.17 0 0
      vertex 59.17 0 2
    endloop
  endfacet
  facet normal 0 1 -0
    outer loop
      vertex 66.16 4.45 0
      vertex 59.17 4.45 2
      vertex 66.16 4.45 2
    endloop
  endfacet
  facet normal 0 1 0
    outer loop
      vertex 59.17 4.45 2
      vertex 66.16 4.45 0
      vertex 59.17 4.45 0
    endloop
  endfacet
  facet normal 1 -0 0
    outer loop
      vertex 46.99 37.85 2
      vertex 46.99 42.3 0
      vertex 46.99 42.3 2
    endloop
  endfacet
  facet normal 1 0 0
    outer loop
      vertex 46.99 42.3 0
      vertex 46.99 37.85 2
      vertex 46.99 37.85 0
    endloop
  endfacet
  facet normal 0 -1 0
    outer loop
      vertex 40 37.85 0
      vertex 46.99 37.85 2
      vertex 40 37.85 2
    endloop
  endfacet
  facet normal 0 -1 -0
    outer loop
      vertex 46.99 37.85 2
      vertex 40 37.85 0
      vertex 46.99 37.85 0
    endloop
  endfacet
  facet normal -1 0 0
    outer loop
      vertex 59.17 37.85 0
      vertex 59.17 42.3 2
      vertex 59.17 42.3 0
    endloop
  endfacet
  facet normal -1 -0 0
    outer loop
      vertex 59.17 42.3 2
      vertex 59.17 37.85 0
      vertex 59.17 37.85 2
    endloop
  endfacet
  facet normal 0 -1 0
    outer loop
      vertex 59.17 37.85 0
      vertex 66.16 37.85 2
      vertex 59.17 37.85 2
    endloop
  endfacet
  facet normal 0 -1 -0
    outer loop
      vertex 66.16 37.85 2
      vertex 59.17 37.85 0
      vertex 66.16 37.85 0
    endloop
  endfacet
  facet normal 1 -0 0
    outer loop
      vertex 80 4.45 2
      vertex 80 37.85 0
      vertex 80 37.85 2
    endloop
  endfacet
  facet normal 1 0 0
    outer loop
      vertex 80 37.85 0
      vertex 80 4.45 2
      vertex 80 4.45 0
    endloop
  endfacet
  facet normal -1 0 0
    outer loop
      vertex 106.16 4.45 0
      vertex 106.16 37.85 2
      vertex 106.16 37.85 0
    endloop
  endfacet
  facet normal -1 -0 0
    outer loop
      vertex 106.16 37.85 2
      vertex 106.16 4.45 0
      vertex 106.16 4.45 2
    endloop
  endfacet
  facet normal 0 -1 0
    outer loop
      vertex 86.99 42.3 0
      vertex 99.17 42.3 2
      vertex 86.99 42.3 2
    endloop
  endfacet
  facet normal 0 -1 -0
    outer loop
      vertex 99.17 42.3 2
      vertex 86.99 42.3 0
      vertex 99.17 42.3 0
    endloop
  endfacet
  facet normal 0 1 -0
    outer loop
      vertex 99.17 0 0
      vertex 86.99 0 2
      vertex 99.17 0 2
    endloop
  endfacet
  facet normal 0 1 0
    outer loop
      vertex 86.99 0 2
      vertex 99.17 0 0
      vertex 86.99 0 0
    endloop
  endfacet
  facet normal 1 -0 0
    outer loop
      vertex 86.99 0 2
      vertex 86.99 4.45 0
      vertex 86.99 4.45 2
    endloop
  endfacet
  facet normal 1 0 0
    outer loop
      vertex 86.99 4.45 0
      vertex 86.99 0 2
      vertex 86.99 0 0
    endloop
  endfacet
  facet normal 0 1 -0
    outer loop
      vertex 86.99 4.45 0
      vertex 80 4.45 2
      vertex 86.99 4.45 2
    endloop
  endfacet
  facet normal 0 1 0
    outer loop
      vertex 80 4.45 2
      vertex 86.99 4.45 0
      vertex 80 4.45 0
    endloop
  endfacet
  facet normal -1 0 0
    outer loop
      vertex 99.17 0 0
      vertex 99.17 4.45 2
      vertex 99.17 4.45 0
    endloop
  endfacet
  facet normal -1 -0 0
    outer loop
      vertex 99.17 4.45 2
      vertex 99.17 0 0
      vertex 99.17 0 2
    endloop
  endfacet
  facet normal 0 1 -0
    outer loop
      vertex 106.16 4.45 0
      vertex 99.17 4.45 2
      vertex 106.16 4.45 2
    endloop
  endfacet
  facet normal 0 1 0
    outer loop
      vertex 99.17 4.45 2
      vertex 106.16 4.45 0
      vertex 99.17 4.45 0
    endloop
  endfacet
  facet normal 1 -0 0
    outer loop
      vertex 86.99 37.85 2
      vertex 86.99 42.3 0
      vertex 86.99 42.3 2
    endloop
  endfacet
  facet normal 1 0 0
    outer loop
      vertex 86.99 42.3 0
      vertex 86.99 37.85 2
      vertex 86.99 37.85 0
    endloop
  endfacet
  facet normal 0 -1 0
    outer loop
      vertex 80 37.85 0
      vertex 86.99 37.85 2
      vertex 80 37.85 2
    endloop
  endfacet
  facet normal 0 -1 -0
    outer loop
      vertex 86.99 37.85 2
      vertex 80 37.85 0
      vertex 86.99 37.85 0
    endloop
  endfacet
  facet normal -1 0 0
    outer loop
      vertex 99.17 37.85 0
      vertex 99.17 42.3 2
      vertex 99.17 42.3 0
    endloop
  endfacet
  facet normal -1 -0 0
    outer loop
      vertex 99.17 42.3 2
      vertex 99.17 37.85 0
      vertex 99.17 37.85 2
    endloop
  endfacet
  facet normal 0 -1 0
    outer loop
      vertex 99.17 37.85 0
      vertex 106.16 37.85 2
      vertex 99.17 37.85 2
    endloop
  endfacet
  facet normal 0 -1 -0
    outer loop
      vertex 106.16 37.85 2
      vertex 99.17 37.85 0
      vertex 106.16 37.85 0
    endloop
  endfacet
  facet normal 1 -0 0
    outer loop
      vertex 120 4.45 2
      vertex 120 37.85 0
      vertex 120 37.85 2
    endloop
  endfacet
  facet normal 1 0 0
    outer loop
      vertex 120 37.85 0
      vertex 120 4.45 2
      vertex 120 4.45 0
    endloop
  endfacet
  facet normal -1 0 0
    outer loop
      vertex 146.16 4.45 0
      vertex 146.16 37.85 2
      vertex 146.16 37.85 0
    endloop
  endfacet
  facet normal -1 -0 0
    outer loop
      vertex 146.16 37.85 2
      vertex 146.16 4.45 0
      vertex 146.16 4.45 2
    endloop
  endfacet
  facet normal 0 -1 0
    outer loop
      vertex 126.99 42.3 0
      vertex 139.17 42.3 2
      vertex 126.99 42.3 2
    endloop
  endfacet
  facet normal 0 -1 -0
    outer loop
      vertex 139.17 42.3 2
      vertex 126.99 42.3 0
      vertex 139.17 42.3 0
    endloop
  endfacet
  facet normal 0 1 -0
    outer loop
      vertex 139.17 0 0
      vertex 126.99 0 2
      vertex 139.17 0 2
    endloop
  endfacet
  facet normal 0 1 0
    outer loop
      vertex 126.99 0 2
      vertex 139.17 0 0
      vertex 126.99 0 0
    endloop
  endfacet
  facet normal 1 -0 0
    outer loop
      vertex 126.99 0 2
      vertex 126.99 4.45 0
      vertex 126.99 4.45 2
    endloop
  endfacet
  facet normal 1 0 0
    outer loop
      vertex 126.99 4.45 0
      vertex 126.99 0 2
      vertex 126.99 0 0
    endloop
  endfacet
  facet normal 0 1 -0
    outer loop
      vertex 126.99 4.45 0
      vertex 120 4.45 2
      vertex 126.99 4.45 2
    endloop
  endfacet
  facet normal 0 1 0
    outer loop
      vertex 120 4.45 2
      vertex 126.99 4.45 0
      vertex 120 4.45 0
    endloop
  endfacet
  facet normal -1 0 0
    outer loop
      vertex 139.17 0 0
      vertex 139.17 4.45 2
      vertex 139.17 4.45 0
    endloop
  endfacet
  facet normal -1 -0 0
    outer loop
      vertex 139.17 4.45 2
      vertex 139.17 0 0
      vertex 139.17 0 2
    endloop
  endfacet
  facet normal 0 1 -0
    outer loop
      vertex 146.16 4.45 0
      vertex 139.17 4.45 2
      vertex 146.16 4.45 2
    endloop
  endfacet
  facet normal 0 1 0
    outer loop
      vertex 139.17 4.45 2
      vertex 146.16 4.45 0
      vertex 139.17 4.45 0
    endloop
  endfacet
  facet normal 1 -0 0
    outer loop
      vertex 126.99 37.85 2
      vertex 126.99 42.3 0
      vertex 126.99 42.3 2
    endloop
  endfacet
  facet normal 1 0 0
    outer loop
      vertex 126.99 42.3 0
      vertex 126.99 37.85 2
      vertex 126.99 37.85 0
    endloop
  endfacet
  facet normal 0 -1 0
    outer loop
      vertex 120 37.85 0
      vertex 126.99 37.85 2
      vertex 120 37.85 2
    endloop
  endfacet
  facet normal 0 -1 -0
    outer loop
      vertex 126.99 37.85 2
      vertex 120 37.85 0
      vertex 126.99 37.85 0
    endloop
  endfacet
  facet normal -1 0 0
    outer loop
      vertex 139.17 37.85 0
      vertex 139.17 42.3 2
      vertex 139.17 42.3 0
    endloop
  endfacet
  facet normal -1 -0 0
    outer loop
      vertex 139.17 42.3 2
      vertex 139.17 37.85 0
      vertex 139.17 37.85 2
    endloop
  endfacet
  facet normal 0 -1 0
    outer loop
      vertex 139.17 37.85 0
      vertex 146.16 37.85 2
      vertex 139.17 37.85 2
    endloop
  endfacet
  facet normal 0 -1 -0
    outer loop
      vertex 146.16 37.85 2
      vertex 139.17 37.85 0
      vertex 146.16 37.85 0
    endloop
  endfacet
  facet normal 1 -0 0
    outer loop
      vertex 160 4.45 2
      vertex 160 25.15 0
      vertex 160 25.15 2
    endloop
  endfacet
  facet normal 1 0 0
    outer loop
      vertex 160 25.15 0
      vertex 160 4.45 2
      vertex 160 4.45 0
    endloop
  endfacet
  facet normal -1 0 0
    outer loop
      vertex 173.46 4.45 0
      vertex 173.46 25.15 2
      vertex 173.46 25.15 0
    endloop
  endfacet
  facet normal -1 -0 0
    outer loop
      vertex 173.46 25.15 2
      vertex 173.46 4.45 0
      vertex 173.46 4.45 2
    endloop
  endfacet
  facet normal 0 1 -0
    outer loop
      vertex 171.05 0 0
      vertex 162.41 0 2
      vertex 171.05 0 2
    endloop
  endfacet
  facet normal 0 1 0
    outer loop
      vertex 162.41 0 2
      vertex 171.05 0 0
      vertex 162.41 0 0
    endloop
  endfacet
  facet normal 0 -1 0
    outer loop
      vertex 162.41 29.6 0
      vertex 171.05 29.6 2
      vertex 162.41 29.6 2
    endloop
  endfacet
  facet normal 0 -1 -0
    outer loop
      vertex 171.05 29.6 2
      vertex 162.41 29.6 0
      vertex 171.05 29.6 0
    endloop
  endfacet
  facet normal 1 -0 0
    outer loop
      vertex 162.41 0 2
      vertex 162.41 4.45 0
      vertex 162.41 4.45 2
    endloop
  endfacet
  facet normal 1 0 0
    outer loop
      vertex 162.41 4.45 0
      vertex 162.41 0 2
      vertex 162.41 0 0
    endloop
  endfacet
  facet normal 0 1 -0
    outer loop
      vertex 162.41 4.45 0
      vertex 160 4.45 2
      vertex 162.41 4.45 2
    endloop
  endfacet
  facet normal 0 1 0
    outer loop
      vertex 160 4.45 2
      vertex 162.41 4.45 0
      vertex 160 4.45 0
    endloop
  endfacet
  facet normal -1 0 0
    outer loop
      vertex 171.05 0 0
      vertex 171.05 4.45 2
      vertex 171.05 4.45 0
    endloop
  endfacet
  facet normal -1 -0 0
    outer loop
      vertex 171.05 4.45 2
      vertex 171.05 0 0
      vertex 171.05 0 2
    endloop
  endfacet
  facet normal 0 1 -0
    outer loop
      vertex 173.46 4.45 0
      vertex 171.05 4.45 2
      vertex 173.46 4.45 2
    endloop
  endfacet
  facet normal 0 1 0
    outer loop
      vertex 171.05 4.45 2
      vertex 173.46 4.45 0
      vertex 171.05 4.45 0
    endloop
  endfacet
  facet normal 1 -0 0
    outer loop
      vertex 162.41 25.15 2
      vertex 162.41 29.6 0
      vertex 162.41 29.6 2
    endloop
  endfacet
  facet normal 1 0 0
    outer loop
      vertex 162.41 29.6 0
      vertex 162.41 25.15 2
      vertex 162.41 25.15 0
    endloop
  endfacet
  facet normal 0 -1 0
    outer loop
      vertex 160 25.15 0
      vertex 162.41 25.15 2
      vertex 160 25.15 2
    endloop
  endfacet
  facet normal 0 -1 -0
    outer loop
      vertex 162.41 25.15 2
      vertex 160 25.15 0
      vertex 162.41 25.15 0
    endloop
  endfacet
  facet normal -1 0 0
    outer loop
      vertex 171.05 25.15 0
      vertex 171.05 29.6 2
      vertex 171.05 29.6 0
    endloop
  endfacet
  facet normal -1 -0 0
    outer loop
      vertex 171.05 29.6 2
      vertex 171.05 25.15 0
      vertex 171.05 25.15 2
    endloop
  endfacet
  facet normal 0 -1 0
    outer loop
      vertex 171.05 25.15 0
      vertex 173.46 25.15 2
      vertex 171.05 25.15 2
    endloop
  endfacet
  facet normal 0 -1 -0
    outer loop
      vertex 173.46 25.15 2
      vertex 171.05 25.15 0
      vertex 173.46 25.15 0
    endloop
  endfacet
  facet normal 1 -0 0
    outer loop
      vertex 185 4.45 2
      vertex 185 18.8 0
      vertex 185 18.8 2
    endloop
  endfacet
  facet normal 1 0 0
    outer loop
      vertex 185 18.8 0
      vertex 185 4.45 2
      vertex 185 4.45 0
    endloop
  endfacet
  facet normal -1 0 0
    outer loop
      vertex 198.46 4.45 0
      vertex 198.46 18.8 2
      vertex 198.46 18.8 0
    endloop
  endfacet
  facet normal -1 -0 0
    outer loop
      vertex 198.46 18.8 2
      vertex 198.46 4.45 0
      vertex 198.46 4.45 2
    endloop
  endfacet
  facet normal 0 -1 0
    outer loop
      vertex 187.41 23.25 0
      vertex 196.05 23.25 2
      vertex 187.41 23.25 2
    endloop
  endfacet
  facet normal 0 -1 -0
    outer loop
      vertex 196.05 23.25 2
      vertex 187.41 23.25 0
      vertex 196.05 23.25 0
    endloop
  endfacet
  facet normal 0 1 -0
    outer loop
      vertex 196.05 0 0
      vertex 187.41 0 2
      vertex 196.05 0 2
    endloop
  endfacet
  facet normal 0 1 0
    outer loop
      vertex 187.41 0 2
      vertex 196.05 0 0
      vertex 187.41 0 0
    endloop
  endfacet
  facet normal 1 -0 0
    outer loop
      vertex 187.41 0 2
      vertex 187.41 4.45 0
      vertex 187.41 4.45 2
    endloop
  endfacet
  facet normal 1 0 0
    outer loop
      vertex 187.41 4.45 0
      vertex 187.41 0 2
      vertex 187.41 0 0
    endloop
  endfacet
  facet normal 0 1 -0
    outer loop
      vertex 187.41 4.45 0
      vertex 185 4.45 2
      vertex 187.41 4.45 2
    endloop
  endfacet
  facet normal 0 1 0
    outer loop
      vertex 185 4.45 2
      vertex 187.41 4.45 0
      vertex 185 4.45 0
    endloop
  endfacet
  facet normal -1 0 0
    outer loop
      vertex 196.05 0 0
      vertex 196.05 4.45 2
      vertex 196.05 4.45 0
    endloop
  endfacet
  facet normal -1 -0 0
    outer loop
      vertex 196.05 4.45 2
      vertex 196.05 0 0
      vertex 196.05 0 2
    endloop
  endfacet
  facet normal 0 1 -0
    outer loop
      vertex 198.46 4.45 0
      vertex 196.05 4.45 2
      vertex 198.46 4.45 2
    endloop
  endfacet
  facet normal 0 1 0
    outer loop
      vertex 196.05 4.45 2
      vertex 198.46 4.45 0
      vertex 196.05 4.45 0
    endloop
  endfacet
  facet normal 1 -0 0
    outer loop
      vertex 187.41 18.8 2
      vertex 187.41 23.25 0
      vertex 187.41 23.25 2
    endloop
  endfacet
  facet normal 1 0 0
    outer loop
      vertex 187.41 23.25 0
      vertex 187.41 18.8 2
      vertex 187.41 18.8 0
    endloop
  endfacet
  facet normal 0 -1 0
    outer loop
      vertex 185 18.8 0
      vertex 187.41 18.8 2
      vertex 185 18.8 2
    endloop
  endfacet
  facet normal 0 -1 -0
    outer loop
      vertex 187.41 18.8 2
      vertex 185 18.8 0
      vertex 187.41 18.8 0
    endloop
  endfacet
  facet normal -1 0 0
    outer loop
      vertex 196.05 18.8 0
      vertex 196.05 23.25 2
      vertex 196.05 23.25 0
    endloop
  endfacet
  facet normal -1 -0 0
    outer loop
      vertex 196.05 23.25 2
      vertex 196.05 18.8 0
      vertex 196.05 18.8 2
    endloop
  endfacet
  facet normal 0 -1 0
    outer loop
      vertex 196.05 18.8 0
      vertex 198.46 18.8 2
      vertex 196.05 18.8 2
    endloop
  endfacet
  facet normal 0 -1 -0
    outer loop
      vertex 198.46 18.8 2
      vertex 196.05 18.8 0
      vertex 198.46 18.8 0
    endloop
  endfacet
  facet normal -1 0 0
    outer loop
      vertex -6 53 0
      vertex -6 -10 2
      vertex -6 53 2
    endloop
  endfacet
  facet normal -1 0 0
    outer loop
      vertex -6 -12 0
      vertex -6 -10 2
      vertex -6 53 0
    endloop
  endfacet
  facet normal -1 0 0
    outer loop
      vertex -6 -12 40
      vertex -6 -10 2
      vertex -6 -12 0
    endloop
  endfacet
  facet normal -1 0 0
    outer loop
      vertex -6 -10 2
      vertex -6 -12 40
      vertex -6 -10 40
    endloop
  endfacet
  facet normal 0 0 1
    outer loop
      vertex 6.99 4.45 2
      vertex 0 4.45 2
      vertex 6.99 0 2
    endloop
  endfacet
  facet normal 0 0 1
    outer loop
      vertex 26.16 31.5 2
      vertex 19.17 35.95 2
      vertex 19.17 31.5 2
    endloop
  endfacet
  facet normal 0 0 1
    outer loop
      vertex 46.99 4.45 2
      vertex 40 4.45 2
      vertex 46.99 0 2
    endloop
  endfacet
  facet normal 0 0 1
    outer loop
      vertex 66.16 37.85 2
      vertex 59.17 42.3 2
      vertex 59.17 37.85 2
    endloop
  endfacet
  facet normal 0 0 1
    outer loop
      vertex 86.99 4.45 2
      vertex 80 4.45 2
      vertex 86.99 0 2
    endloop
  endfacet
  facet normal 0 0 1
    outer loop
      vertex 106.16 37.85 2
      vertex 99.17 42.3 2
      vertex 99.17 37.85 2
    endloop
  endfacet
  facet normal 0 0 1
    outer loop
      vertex 126.99 4.45 2
      vertex 120 4.45 2
      vertex 126.99 0 2
    endloop
  endfacet
  facet normal 0 0 1
    outer loop
      vertex 146.16 37.85 2
      vertex 139.17 42.3 2
      vertex 139.17 37.85 2
    endloop
  endfacet
  facet normal 0 0 1
    outer loop
      vertex 162.41 4.45 2
      vertex 160 4.45 2
      vertex 162.41 0 2
    endloop
  endfacet
  facet normal 0 0 1
    outer loop
      vertex 173.46 25.15 2
      vertex 171.05 29.6 2
      vertex 171.05 25.15 2
    endloop
  endfacet
  facet normal 0 0 1
    outer loop
      vertex 187.41 4.45 2
      vertex 185 4.45 2
      vertex 187.41 0 2
    endloop
  endfacet
  facet normal 0 0 1
    outer loop
      vertex 204 53 2
      vertex 198.46 18.8 2
      vertex 204 -10 2
    endloop
  endfacet
  facet normal 0 0 1
    outer loop
      vertex 204 53 2
      vertex 196.05 23.25 2
      vertex 198.46 18.8 2
    endloop
  endfacet
  facet normal 0 0 1
    outer loop
      vertex 204 53 2
      vertex 187.41 23.25 2
      vertex 196.05 23.25 2
    endloop
  endfacet
  facet normal 0 0 1
    outer loop
      vertex 187.41 23.25 2
      vertex 185 18.8 2
      vertex 187.41 18.8 2
    endloop
  endfacet
  facet normal 0 0 1
    outer loop
      vertex 173.46 4.45 2
      vertex 185 18.8 2
      vertex 173.46 25.15 2
    endloop
  endfacet
  facet normal 0 0 1
    outer loop
      vertex 187.41 23.25 2
      vertex 173.46 25.15 2
      vertex 185 18.8 2
    endloop
  endfacet
  facet normal -0 0 1
    outer loop
      vertex 171.05 29.6 2
      vertex 187.41 23.25 2
      vertex 204 53 2
    endloop
  endfacet
  facet normal 0 0 1
    outer loop
      vertex 187.41 23.25 2
      vertex 171.05 29.6 2
      vertex 173.46 25.15 2
    endloop
  endfacet
  facet normal -0 0 1
    outer loop
      vertex 146.16 37.85 2
      vertex 171.05 29.6 2
      vertex 204 53 2
    endloop
  endfacet
  facet normal 0 0 1
    outer loop
      vertex 162.41 29.6 2
      vertex 160 25.15 2
      vertex 162.41 25.15 2
    endloop
  endfacet
  facet normal 0 0 1
    outer loop
      vertex 146.16 4.45 2
      vertex 160 25.15 2
      vertex 146.16 37.85 2
    endloop
  endfacet
  facet normal 0 0 1
    outer loop
      vertex 162.41 29.6 2
      vertex 146.16 37.85 2
      vertex 160 25.15 2
    endloop
  endfacet
  facet normal 0 0 1
    outer loop
      vertex 171.05 29.6 2
      vertex 146.16 37.85 2
      vertex 162.41 29.6 2
    endloop
  endfacet
  facet normal 0 0 1
    outer loop
      vertex 204 53 2
      vertex 139.17 42.3 2
      vertex 146.16 37.85 2
    endloop
  endfacet
  facet normal 0 0 1
    outer loop
      vertex 204 53 2
      vertex 126.99 42.3 2
      vertex 139.17 42.3 2
    endloop
  endfacet
  facet normal 0 0 1
    outer loop
      vertex 126.99 42.3 2
      vertex 120 37.85 2
      vertex 126.99 37.85 2
    endloop
  endfacet
  facet normal 0 0 1
    outer loop
      vertex 120 37.85 2
      vertex 106.16 37.85 2
      vertex 120 4.45 2
    endloop
  endfacet
  facet normal 0 0 1
    outer loop
      vertex 126.99 42.3 2
      vertex 106.16 37.85 2
      vertex 120 37.85 2
    endloop
  endfacet
  facet normal 0 0 1
    outer loop
      vertex 126.99 42.3 2
      vertex 99.17 42.3 2
      vertex 106.16 37.85 2
    endloop
  endfacet
  facet normal 0 0 1
    outer loop
      vertex 204 53 2
      vertex 99.17 42.3 2
      vertex 126.99 42.3 2
    endloop
  endfacet
  facet normal -0 0 1
    outer loop
      vertex -6 53 2
      vertex 99.17 42.3 2
      vertex 204 53 2
    endloop
  endfacet
  facet normal 0 0 1
    outer loop
      vertex 86.99 42.3 2
      vertex 80 37.85 2
      vertex 86.99 37.85 2
    endloop
  endfacet
  facet normal 0 0 1
    outer loop
      vertex 80 37.85 2
      vertex 66.16 37.85 2
      vertex 80 4.45 2
    endloop
  endfacet
  facet normal 0 0 1
    outer loop
      vertex 86.99 42.3 2
      vertex 66.16 37.85 2
      vertex 80 37.85 2
    endloop
  endfacet
  facet normal 0 0 1
    outer loop
      vertex 86.99 42.3 2
      vertex 59.17 42.3 2
      vertex 66.16 37.85 2
    endloop
  endfacet
  facet normal 0 0 1
    outer loop
      vertex 99.17 42.3 2
      vertex -6 53 2
      vertex 86.99 42.3 2
    endloop
  endfacet
  facet normal 0 0 1
    outer loop
      vertex 86.99 42.3 2
      vertex -6 53 2
      vertex 59.17 42.3 2
    endloop
  endfacet
  facet normal 0 0 1
    outer loop
      vertex 46.99 42.3 2
      vertex 40 37.85 2
      vertex 46.99 37.85 2
    endloop
  endfacet
  facet normal 0 0 1
    outer loop
      vertex 40 37.85 2
      vertex 26.16 31.5 2
      vertex 40 4.45 2
    endloop
  endfacet
  facet normal 0 0 1
    outer loop
      vertex 19.17 35.95 2
      vertex 40 37.85 2
      vertex 46.99 42.3 2
    endloop
  endfacet
  facet normal 0 0 1
    outer loop
      vertex 40 37.85 2
      vertex 19.17 35.95 2
      vertex 26.16 31.5 2
    endloop
  endfacet
  facet normal 0 0 1
    outer loop
      vertex -6 53 2
      vertex 19.17 35.95 2
      vertex 46.99 42.3 2
    endloop
  endfacet
  facet normal 0 0 1
    outer loop
      vertex 6.99 35.95 2
      vertex 0 31.5 2
      vertex 6.99 31.5 2
    endloop
  endfacet
  facet normal 0 0 1
    outer loop
      vertex -6 -10 2
      vertex 0 31.5 2
      vertex -6 53 2
    endloop
  endfacet
  facet normal 0 0 1
    outer loop
      vertex 6.99 35.95 2
      vertex -6 53 2
      vertex 0 31.5 2
    endloop
  endfacet
  facet normal 0 0 1
    outer loop
      vertex 19.17 35.95 2
      vertex -6 53 2
      vertex 6.99 35.95 2
    endloop
  endfacet
  facet normal 0 0 1
    outer loop
      vertex 59.17 42.3 2
      vertex -6 53 2
      vertex 46.99 42.3 2
    endloop
  endfacet
  facet normal -0 0 1
    outer loop
      vertex 198.46 4.45 2
      vertex 204 -10 2
      vertex 198.46 18.8 2
    endloop
  endfacet
  facet normal 0 0 1
    outer loop
      vertex 196.05 0 2
      vertex 198.46 4.45 2
      vertex 196.05 4.45 2
    endloop
  endfacet
  facet normal 0 0 1
    outer loop
      vertex 198.46 4.45 2
      vertex 196.05 0 2
      vertex 204 -10 2
    endloop
  endfacet
  facet normal -0 0 1
    outer loop
      vertex 187.41 0 2
      vertex 204 -10 2
      vertex 196.05 0 2
    endloop
  endfacet
  facet normal 0 0 1
    outer loop
      vertex 185 18.8 2
      vertex 173.46 4.45 2
      vertex 185 4.45 2
    endloop
  endfacet
  facet normal 0 0 1
    outer loop
      vertex 185 4.45 2
      vertex 173.46 4.45 2
      vertex 187.41 0 2
    endloop
  endfacet
  facet normal 0 0 1
    outer loop
      vertex 171.05 0 2
      vertex 187.41 0 2
      vertex 173.46 4.45 2
    endloop
  endfacet
  facet normal 0 0 1
    outer loop
      vertex 171.05 0 2
      vertex 173.46 4.45 2
      vertex 171.05 4.45 2
    endloop
  endfacet
  facet normal 0 0 1
    outer loop
      vertex 187.41 0 2
      vertex 171.05 0 2
      vertex 204 -10 2
    endloop
  endfacet
  facet normal -0 0 1
    outer loop
      vertex 162.41 0 2
      vertex 204 -10 2
      vertex 171.05 0 2
    endloop
  endfacet
  facet normal 0 0 1
    outer loop
      vertex 160 25.15 2
      vertex 146.16 4.45 2
      vertex 160 4.45 2
    endloop
  endfacet
  facet normal -0 0 1
    outer loop
      vertex 146.16 4.45 2
      vertex 162.41 0 2
      vertex 160 4.45 2
    endloop
  endfacet
  facet normal 0 0 1
    outer loop
      vertex 139.17 0 2
      vertex 146.16 4.45 2
      vertex 139.17 4.45 2
    endloop
  endfacet
  facet normal 0 0 1
    outer loop
      vertex 146.16 4.45 2
      vertex 139.17 0 2
      vertex 162.41 0 2
    endloop
  endfacet
  facet normal 0 0 1
    outer loop
      vertex 162.41 0 2
      vertex 139.17 0 2
      vertex 204 -10 2
    endloop
  endfacet
  facet normal -0 0 1
    outer loop
      vertex 126.99 0 2
      vertex 204 -10 2
      vertex 139.17 0 2
    endloop
  endfacet
  facet normal 0 0 1
    outer loop
      vertex 106.16 4.45 2
      vertex 120 4.45 2
      vertex 106.16 37.85 2
    endloop
  endfacet
  facet normal -0 0 1
    outer loop
      vertex 106.16 4.45 2
      vertex 126.99 0 2
      vertex 120 4.45 2
    endloop
  endfacet
  facet normal 0 0 1
    outer loop
      vertex 99.17 0 2
      vertex 106.16 4.45 2
      vertex 99.17 4.45 2
    endloop
  endfacet
  facet normal 0 0 1
    outer loop
      vertex 106.16 4.45 2
      vertex 99.17 0 2
      vertex 126.99 0 2
    endloop
  endfacet
  facet normal -0 0 1
    outer loop
      vertex 99.17 0 2
      vertex 204 -10 2
      vertex 126.99 0 2
    endloop
  endfacet
  facet normal 0 0 1
    outer loop
      vertex -6 -10 2
      vertex 99.17 0 2
      vertex 86.99 0 2
    endloop
  endfacet
  facet normal 0 0 1
    outer loop
      vertex 66.16 4.45 2
      vertex 80 4.45 2
      vertex 66.16 37.85 2
    endloop
  endfacet
  facet normal -0 0 1
    outer loop
      vertex 66.16 4.45 2
      vertex 86.99 0 2
      vertex 80 4.45 2
    endloop
  endfacet
  facet normal 0 0 1
    outer loop
      vertex 59.17 0 2
      vertex 66.16 4.45 2
      vertex 59.17 4.45 2
    endloop
  endfacet
  facet normal 0 0 1
    outer loop
      vertex 66.16 4.45 2
      vertex 59.17 0 2
      vertex 86.99 0 2
    endloop
  endfacet
  facet normal 0 0 1
    outer loop
      vertex -6 -10 2
      vertex 86.99 0 2
      vertex 59.17 0 2
    endloop
  endfacet
  facet normal 0 0 1
    outer loop
      vertex -6 -10 2
      vertex 59.17 0 2
      vertex 46.99 0 2
    endloop
  endfacet
  facet normal 0 0 1
    outer loop
      vertex 26.16 4.45 2
      vertex 40 4.45 2
      vertex 26.16 31.5 2
    endloop
  endfacet
  facet normal -0 0 1
    outer loop
      vertex 26.16 4.45 2
      vertex 46.99 0 2
      vertex 40 4.45 2
    endloop
  endfacet
  facet normal 0 0 1
    outer loop
      vertex 19.17 0 2
      vertex 26.16 4.45 2
      vertex 19.17 4.45 2
    endloop
  endfacet
  facet normal 0 0 1
    outer loop
      vertex 26.16 4.45 2
      vertex 19.17 0 2
      vertex 46.99 0 2
    endloop
  endfacet
  facet normal 0 0 1
    outer loop
      vertex -6 -10 2
      vertex 46.99 0 2
      vertex 19.17 0 2
    endloop
  endfacet
  facet normal 0 0 1
    outer loop
      vertex -6 -10 2
      vertex 19.17 0 2
      vertex 6.99 0 2
    endloop
  endfacet
  facet normal 0 0 1
    outer loop
      vertex 99.17 0 2
      vertex -6 -10 2
      vertex 204 -10 2
    endloop
  endfacet
  facet normal 0 0 1
    outer loop
      vertex 0 4.45 2
      vertex -6 -10 2
      vertex 6.99 0 2
    endloop
  endfacet
  facet normal 0 0 1
    outer loop
      vertex 0 31.5 2
      vertex -6 -10 2
      vertex 0 4.45 2
    endloop
  endfacet
  facet normal 0 0 1
    outer loop
      vertex 198.46 18.8 2
      vertex 196.05 23.25 2
      vertex 196.05 18.8 2
    endloop
  endfacet
  facet normal 1 0 0
    outer loop
      vertex 204 -10 40
      vertex 204 -12 40
      vertex 204 -10 2
    endloop
  endfacet
  facet normal 1 -0 0
    outer loop
      vertex 204 -10 2
      vertex 204 53 0
      vertex 204 53 2
    endloop
  endfacet
  facet normal 1 0 0
    outer loop
      vertex 204 -10 2
      vertex 204 -12 0
      vertex 204 53 0
    endloop
  endfacet
  facet normal 1 0 0
    outer loop
      vertex 204 -12 0
      vertex 204 -10 2
      vertex 204 -12 40
    endloop
  endfacet
  facet normal 0 1 -0
    outer loop
      vertex 204 53 0
      vertex -6 53 2
      vertex 204 53 2
    endloop
  endfacet
  facet normal 0 1 0
    outer loop
      vertex -6 53 2
      vertex 204 53 0
      vertex -6 53 0
    endloop
  endfacet
  facet normal 0 0 -1
    outer loop
      vertex 6.99 31.5 0
      vertex 0 31.5 0
      vertex 6.99 35.95 0
    endloop
  endfacet
  facet normal -0 0 -1
    outer loop
      vertex 26.16 4.45 0
      vertex 19.17 0 0
      vertex 19.17 4.45 0
    endloop
  endfacet
  facet normal 0 0 -1
    outer loop
      vertex 46.99 37.85 0
      vertex 40 37.85 0
      vertex 46.99 42.3 0
    endloop
  endfacet
  facet normal -0 0 -1
    outer loop
      vertex 66.16 4.45 0
      vertex 59.17 0 0
      vertex 59.17 4.45 0
    endloop
  endfacet
  facet normal 0 0 -1
    outer loop
      vertex 86.99 37.85 0
      vertex 80 37.85 0
      vertex 86.99 42.3 0
    endloop
  endfacet
  facet normal -0 0 -1
    outer loop
      vertex 106.16 4.45 0
      vertex 99.17 0 0
      vertex 99.17 4.45 0
    endloop
  endfacet
  facet normal 0 0 -1
    outer loop
      vertex 126.99 37.85 0
      vertex 120 37.85 0
      vertex 126.99 42.3 0
    endloop
  endfacet
  facet normal -0 0 -1
    outer loop
      vertex 146.16 4.45 0
      vertex 139.17 0 0
      vertex 139.17 4.45 0
    endloop
  endfacet
  facet normal 0 0 -1
    outer loop
      vertex 162.41 25.15 0
      vertex 160 25.15 0
      vertex 162.41 29.6 0
    endloop
  endfacet
  facet normal 0 0 -1
    outer loop
      vertex 187.41 18.8 0
      vertex 185 18.8 0
      vertex 187.41 23.25 0
    endloop
  endfacet
  facet normal 0 0 -1
    outer loop
      vertex 198.46 18.8 0
      vertex 204 -12 0
      vertex 198.46 4.45 0
    endloop
  endfacet
  facet normal 0 0 -1
    outer loop
      vertex 204 -12 0
      vertex 196.05 0 0
      vertex 198.46 4.45 0
    endloop
  endfacet
  facet normal 0 0 -1
    outer loop
      vertex 204 -12 0
      vertex 187.41 0 0
      vertex 196.05 0 0
    endloop
  endfacet
  facet normal 0 0 -1
    outer loop
      vertex 187.41 0 0
      vertex 185 4.45 0
      vertex 187.41 4.45 0
    endloop
  endfacet
  facet normal 0 0 -1
    outer loop
      vertex 185 4.45 0
      vertex 173.46 4.45 0
      vertex 185 18.8 0
    endloop
  endfacet
  facet normal 0 0 -1
    outer loop
      vertex 187.41 0 0
      vertex 173.46 4.45 0
      vertex 185 4.45 0
    endloop
  endfacet
  facet normal 0 0 -1
    outer loop
      vertex 171.05 0 0
      vertex 187.41 0 0
      vertex 204 -12 0
    endloop
  endfacet
  facet normal 0 0 -1
    outer loop
      vertex 187.41 0 0
      vertex 171.05 0 0
      vertex 173.46 4.45 0
    endloop
  endfacet
  facet normal 0 0 -1
    outer loop
      vertex 204 -12 0
      vertex 162.41 0 0
      vertex 171.05 0 0
    endloop
  endfacet
  facet normal 0 0 -1
    outer loop
      vertex 162.41 0 0
      vertex 160 4.45 0
      vertex 162.41 4.45 0
    endloop
  endfacet
  facet normal 0 0 -1
    outer loop
      vertex 160 4.45 0
      vertex 146.16 4.45 0
      vertex 160 25.15 0
    endloop
  endfacet
  facet normal 0 0 -1
    outer loop
      vertex 162.41 0 0
      vertex 146.16 4.45 0
      vertex 160 4.45 0
    endloop
  endfacet
  facet normal 0 0 -1
    outer loop
      vertex 139.17 0 0
      vertex 162.41 0 0
      vertex 204 -12 0
    endloop
  endfacet
  facet normal 0 0 -1
    outer loop
      vertex 162.41 0 0
      vertex 139.17 0 0
      vertex 146.16 4.45 0
    endloop
  endfacet
  facet normal 0 0 -1
    outer loop
      vertex 204 -12 0
      vertex 126.99 0 0
      vertex 139.17 0 0
    endloop
  endfacet
  facet normal 0 0 -1
    outer loop
      vertex 126.99 0 0
      vertex 120 4.45 0
      vertex 126.99 4.45 0
    endloop
  endfacet
  facet normal 0 0 -1
    outer loop
      vertex 120 4.45 0
      vertex 106.16 4.45 0
      vertex 120 37.85 0
    endloop
  endfacet
  facet normal 0 0 -1
    outer loop
      vertex 126.99 0 0
      vertex 106.16 4.45 0
      vertex 120 4.45 0
    endloop
  endfacet
  facet normal 0 0 -1
    outer loop
      vertex 126.99 0 0
      vertex 99.17 0 0
      vertex 106.16 4.45 0
    endloop
  endfacet
  facet normal 0 0 -1
    outer loop
      vertex 204 -12 0
      vertex 99.17 0 0
      vertex 126.99 0 0
    endloop
  endfacet
  facet normal 0 0 -1
    outer loop
      vertex -6 -12 0
      vertex 99.17 0 0
      vertex 204 -12 0
    endloop
  endfacet
  facet normal 0 0 -1
    outer loop
      vertex 86.99 0 0
      vertex 80 4.45 0
      vertex 86.99 4.45 0
    endloop
  endfacet
  facet normal 0 0 -1
    outer loop
      vertex 80 4.45 0
      vertex 66.16 4.45 0
      vertex 80 37.85 0
    endloop
  endfacet
  facet normal 0 0 -1
    outer loop
      vertex 86.99 0 0
      vertex 66.16 4.45 0
      vertex 80 4.45 0
    endloop
  endfacet
  facet normal 0 0 -1
    outer loop
      vertex 86.99 0 0
      vertex 59.17 0 0
      vertex 66.16 4.45 0
    endloop
  endfacet
  facet normal -0 0 -1
    outer loop
      vertex 99.17 0 0
      vertex -6 -12 0
      vertex 86.99 0 0
    endloop
  endfacet
  facet normal -0 0 -1
    outer loop
      vertex 86.99 0 0
      vertex -6 -12 0
      vertex 59.17 0 0
    endloop
  endfacet
  facet normal 0 0 -1
    outer loop
      vertex 46.99 0 0
      vertex 40 4.45 0
      vertex 46.99 4.45 0
    endloop
  endfacet
  facet normal 0 0 -1
    outer loop
      vertex 26.16 31.5 0
      vertex 40 4.45 0
      vertex 26.16 4.45 0
    endloop
  endfacet
  facet normal 0 0 -1
    outer loop
      vertex 46.99 0 0
      vertex 26.16 4.45 0
      vertex 40 4.45 0
    endloop
  endfacet
  facet normal 0 0 -1
    outer loop
      vertex 46.99 0 0
      vertex 19.17 0 0
      vertex 26.16 4.45 0
    endloop
  endfacet
  facet normal -0 0 -1
    outer loop
      vertex 59.17 0 0
      vertex -6 -12 0
      vertex 46.99 0 0
    endloop
  endfacet
  facet normal -0 0 -1
    outer loop
      vertex 46.99 0 0
      vertex -6 -12 0
      vertex 19.17 0 0
    endloop
  endfacet
  facet normal 0 0 -1
    outer loop
      vertex 6.99 0 0
      vertex 0 4.45 0
      vertex 6.99 4.45 0
    endloop
  endfacet
  facet normal -0 0 -1
    outer loop
      vertex 0 4.45 0
      vertex -6 -12 0
      vertex 0 31.5 0
    endloop
  endfacet
  facet normal -0 0 -1
    outer loop
      vertex 6.99 0 0
      vertex -6 -12 0
      vertex 0 4.45 0
    endloop
  endfacet
  facet normal -0 0 -1
    outer loop
      vertex 19.17 0 0
      vertex -6 -12 0
      vertex 6.99 0 0
    endloop
  endfacet
  facet normal 0 0 -1
    outer loop
      vertex 204 -12 0
      vertex 198.46 18.8 0
      vertex 204 53 0
    endloop
  endfacet
  facet normal 0 0 -1
    outer loop
      vertex 196.05 23.25 0
      vertex 198.46 18.8 0
      vertex 196.05 18.8 0
    endloop
  endfacet
  facet normal 0 0 -1
    outer loop
      vertex 198.46 18.8 0
      vertex 196.05 23.25 0
      vertex 204 53 0
    endloop
  endfacet
  facet normal 0 0 -1
    outer loop
      vertex 187.41 23.25 0
      vertex 204 53 0
      vertex 196.05 23.25 0
    endloop
  endfacet
  facet normal 0 0 -1
    outer loop
      vertex 173.46 25.15 0
      vertex 185 18.8 0
      vertex 173.46 4.45 0
    endloop
  endfacet
  facet normal 0 0 -1
    outer loop
      vertex 185 18.8 0
      vertex 173.46 25.15 0
      vertex 187.41 23.25 0
    endloop
  endfacet
  facet normal 0 0 -1
    outer loop
      vertex 171.05 29.6 0
      vertex 187.41 23.25 0
      vertex 173.46 25.15 0
    endloop
  endfacet
  facet normal 0 0 -1
    outer loop
      vertex 171.05 29.6 0
      vertex 173.46 25.15 0
      vertex 171.05 25.15 0
    endloop
  endfacet
  facet normal 0 0 -1
    outer loop
      vertex 187.41 23.25 0
      vertex 171.05 29.6 0
      vertex 204 53 0
    endloop
  endfacet
  facet normal 0 0 -1
    outer loop
      vertex 146.16 37.85 0
      vertex 171.05 29.6 0
      vertex 162.41 29.6 0
    endloop
  endfacet
  facet normal 0 0 -1
    outer loop
      vertex 146.16 37.85 0
      vertex 160 25.15 0
      vertex 146.16 4.45 0
    endloop
  endfacet
  facet normal 0 0 -1
    outer loop
      vertex 160 25.15 0
      vertex 146.16 37.85 0
      vertex 162.41 29.6 0
    endloop
  endfacet
  facet normal 0 0 -1
    outer loop
      vertex 171.05 29.6 0
      vertex 146.16 37.85 0
      vertex 204 53 0
    endloop
  endfacet
  facet normal 0 0 -1
    outer loop
      vertex 139.17 42.3 0
      vertex 146.16 37.85 0
      vertex 139.17 37.85 0
    endloop
  endfacet
  facet normal 0 0 -1
    outer loop
      vertex 146.16 37.85 0
      vertex 139.17 42.3 0
      vertex 204 53 0
    endloop
  endfacet
  facet normal 0 0 -1
    outer loop
      vertex 126.99 42.3 0
      vertex 204 53 0
      vertex 139.17 42.3 0
    endloop
  endfacet
  facet normal 0 0 -1
    outer loop
      vertex 106.16 37.85 0
      vertex 120 37.85 0
      vertex 106.16 4.45 0
    endloop
  endfacet
  facet normal 0 0 -1
    outer loop
      vertex 106.16 37.85 0
      vertex 126.99 42.3 0
      vertex 120 37.85 0
    endloop
  endfacet
  facet normal 0 0 -1
    outer loop
      vertex 99.17 42.3 0
      vertex 106.16 37.85 0
      vertex 99.17 37.85 0
    endloop
  endfacet
  facet normal 0 0 -1
    outer loop
      vertex 106.16 37.85 0
      vertex 99.17 42.3 0
      vertex 126.99 42.3 0
    endloop
  endfacet
  facet normal 0 0 -1
    outer loop
      vertex 99.17 42.3 0
      vertex 204 53 0
      vertex 126.99 42.3 0
    endloop
  endfacet
  facet normal 0 0 -1
    outer loop
      vertex -6 53 0
      vertex 99.17 42.3 0
      vertex 86.99 42.3 0
    endloop
  endfacet
  facet normal 0 0 -1
    outer loop
      vertex 66.16 37.85 0
      vertex 80 37.85 0
      vertex 66.16 4.45 0
    endloop
  endfacet
  facet normal 0 0 -1
    outer loop
      vertex 66.16 37.85 0
      vertex 86.99 42.3 0
      vertex 80 37.85 0
    endloop
  endfacet
  facet normal 0 0 -1
    outer loop
      vertex 59.17 42.3 0
      vertex 66.16 37.85 0
      vertex 59.17 37.85 0
    endloop
  endfacet
  facet normal 0 0 -1
    outer loop
      vertex 66.16 37.85 0
      vertex 59.17 42.3 0
      vertex 86.99 42.3 0
    endloop
  endfacet
  facet normal 0 0 -1
    outer loop
      vertex -6 53 0
      vertex 86.99 42.3 0
      vertex 59.17 42.3 0
    endloop
  endfacet
  facet normal 0 0 -1
    outer loop
      vertex -6 53 0
      vertex 59.17 42.3 0
      vertex 46.99 42.3 0
    endloop
  endfacet
  facet normal 0 0 -1
    outer loop
      vertex 40 4.45 0
      vertex 26.16 31.5 0
      vertex 40 37.85 0
    endloop
  endfacet
  facet normal 0 0 -1
    outer loop
      vertex 19.17 35.95 0
      vertex 40 37.85 0
      vertex 26.16 31.5 0
    endloop
  endfacet
  facet normal 0 0 -1
    outer loop
      vertex 19.17 35.95 0
      vertex 26.16 31.5 0
      vertex 19.17 31.5 0
    endloop
  endfacet
  facet normal -0 0 -1
    outer loop
      vertex 40 37.85 0
      vertex 19.17 35.95 0
      vertex 46.99 42.3 0
    endloop
  endfacet
  facet normal 0 0 -1
    outer loop
      vertex -6 53 0
      vertex 19.17 35.95 0
      vertex 6.99 35.95 0
    endloop
  endfacet
  facet normal 0 0 -1
    outer loop
      vertex 99.17 42.3 0
      vertex -6 53 0
      vertex 204 53 0
    endloop
  endfacet
  facet normal 0 0 -1
    outer loop
      vertex 19.17 35.95 0
      vertex -6 53 0
      vertex 46.99 42.3 0
    endloop
  endfacet
  facet normal 0 0 -1
    outer loop
      vertex 0 31.5 0
      vertex -6 53 0
      vertex 6.99 35.95 0
    endloop
  endfacet
  facet normal 0 0 -1
    outer loop
      vertex -6 53 0
      vertex 0 31.5 0
      vertex -6 -12 0
    endloop
  endfacet
  facet normal -0 0 -1
    outer loop
      vertex 198.46 4.45 0
      vertex 196.05 0 0
      vertex 196.05 4.45 0
    endloop
  endfacet
  facet normal -0 0 -1
    outer loop
      vertex 173.46 4.45 0
      vertex 171.05 0 0
      vertex 171.05 4.45 0
    endloop
  endfacet
  facet normal 0 -1 0
    outer loop
      vertex -6 -12 0
      vertex 204 -12 40
      vertex -6 -12 40
    endloop
  endfacet
  facet normal 0 -1 -0
    outer loop
      vertex 204 -12 40
      vertex -6 -12 0
      vertex 204 -12 0
    endloop
  endfacet
  facet normal -0 0 1
    outer loop
      vertex -6 -10 40
      vertex 204 -12 40
      vertex 204 -10 40
    endloop
  endfacet
  facet normal 0 0 1
    outer loop
      vertex 204 -12 40
      vertex -6 -10 40
      vertex -6 -12 40
    endloop
  endfacet
  facet normal 0 1 -0
    outer loop
      vertex 204 -10 2
      vertex -6 -10 40
      vertex 204 -10 40
    endloop
  endfacet
  facet normal 0 1 0
    outer loop
      vertex -6 -10 40
      vertex 204 -10 2
      vertex -6 -10 2
    endloop
  endfacet
endsolid OpenSCAD_Model
