solid OpenSCAD_Model
  facet normal 1 -0 0
    outer loop
      vertex 3 5.45 2
      vertex 3 32.5 0
      vertex 3 32.5 2
    endloop
  endfacet
  facet normal 1 0 0
    outer loop
      vertex 3 32.5 0
      vertex 3 5.45 2
      vertex 3 5.45 0
    endloop
  endfacet
  facet normal -1 0 0
    outer loop
      vertex 29.16 5.45 0
      vertex 29.16 32.5 2
      vertex 29.16 32.5 0
    endloop
  endfacet
  facet normal -1 -0 0
    outer loop
      vertex 29.16 32.5 2
      vertex 29.16 5.45 0
      vertex 29.16 5.45 2
    endloop
  endfacet
  facet normal 0 -1 0
    outer loop
      vertex 9.99 36.95 0
      vertex 22.17 36.95 2
      vertex 9.99 36.95 2
    endloop
  endfacet
  facet normal 0 -1 -0
    outer loop
      vertex 22.17 36.95 2
      vertex 9.99 36.95 0
      vertex 22.17 36.95 0
    endloop
  endfacet
  facet normal 0 1 -0
    outer loop
      vertex 22.17 1 0
      vertex 9.99 1 2
      vertex 22.17 1 2
    endloop
  endfacet
  facet normal 0 1 0
    outer loop
      vertex 9.99 1 2
      vertex 22.17 1 0
      vertex 9.99 1 0
    endloop
  endfacet
  facet normal 1 -0 0
    outer loop
      vertex 9.99 1 2
      vertex 9.99 5.45 0
      vertex 9.99 5.45 2
    endloop
  endfacet
  facet normal 1 0 0
    outer loop
      vertex 9.99 5.45 0
      vertex 9.99 1 2
      vertex 9.99 1 0
    endloop
  endfacet
  facet normal 0 1 -0
    outer loop
      vertex 9.99 5.45 0
      vertex 3 5.45 2
      vertex 9.99 5.45 2
    endloop
  endfacet
  facet normal 0 1 0
    outer loop
      vertex 3 5.45 2
      vertex 9.99 5.45 0
      vertex 3 5.45 0
    endloop
  endfacet
  facet normal -1 0 0
    outer loop
      vertex 22.17 1 0
      vertex 22.17 5.45 2
      vertex 22.17 5.45 0
    endloop
  endfacet
  facet normal -1 -0 0
    outer loop
      vertex 22.17 5.45 2
      vertex 22.17 1 0
      vertex 22.17 1 2
    endloop
  endfacet
  facet normal 0 1 -0
    outer loop
      vertex 29.16 5.45 0
      vertex 22.17 5.45 2
      vertex 29.16 5.45 2
    endloop
  endfacet
  facet normal 0 1 0
    outer loop
      vertex 22.17 5.45 2
      vertex 29.16 5.45 0
      vertex 22.17 5.45 0
    endloop
  endfacet
  facet normal 1 -0 0
    outer loop
      vertex 9.99 32.5 2
      vertex 9.99 36.95 0
      vertex 9.99 36.95 2
    endloop
  endfacet
  facet normal 1 0 0
    outer loop
      vertex 9.99 36.95 0
      vertex 9.99 32.5 2
      vertex 9.99 32.5 0
    endloop
  endfacet
  facet normal 0 -1 0
    outer loop
      vertex 3 32.5 0
      vertex 9.99 32.5 2
      vertex 3 32.5 2
    endloop
  endfacet
  facet normal 0 -1 -0
    outer loop
      vertex 9.99 32.5 2
      vertex 3 32.5 0
      vertex 9.99 32.5 0
    endloop
  endfacet
  facet normal -1 0 0
    outer loop
      vertex 22.17 32.5 0
      vertex 22.17 36.95 2
      vertex 22.17 36.95 0
    endloop
  endfacet
  facet normal -1 -0 0
    outer loop
      vertex 22.17 36.95 2
      vertex 22.17 32.5 0
      vertex 22.17 32.5 2
    endloop
  endfacet
  facet normal 0 -1 0
    outer loop
      vertex 22.17 32.5 0
      vertex 29.16 32.5 2
      vertex 22.17 32.5 2
    endloop
  endfacet
  facet normal 0 -1 -0
    outer loop
      vertex 29.16 32.5 2
      vertex 22.17 32.5 0
      vertex 29.16 32.5 0
    endloop
  endfacet
  facet normal 1 -0 0
    outer loop
      vertex 40 5.45 2
      vertex 40 38.85 0
      vertex 40 38.85 2
    endloop
  endfacet
  facet normal 1 0 0
    outer loop
      vertex 40 38.85 0
      vertex 40 5.45 2
      vertex 40 5.45 0
    endloop
  endfacet
  facet normal -1 0 0
    outer loop
      vertex 66.16 5.45 0
      vertex 66.16 38.85 2
      vertex 66.16 38.85 0
    endloop
  endfacet
  facet normal -1 -0 0
    outer loop
      vertex 66.16 38.85 2
      vertex 66.16 5.45 0
      vertex 66.16 5.45 2
    endloop
  endfacet
  facet normal 0 -1 0
    outer loop
      vertex 46.99 43.3 0
      vertex 59.17 43.3 2
      vertex 46.99 43.3 2
    endloop
  endfacet
  facet normal 0 -1 -0
    outer loop
      vertex 59.17 43.3 2
      vertex 46.99 43.3 0
      vertex 59.17 43.3 0
    endloop
  endfacet
  facet normal 0 1 -0
    outer loop
      vertex 59.17 1 0
      vertex 46.99 1 2
      vertex 59.17 1 2
    endloop
  endfacet
  facet normal 0 1 0
    outer loop
      vertex 46.99 1 2
      vertex 59.17 1 0
      vertex 46.99 1 0
    endloop
  endfacet
  facet normal 1 -0 0
    outer loop
      vertex 46.99 1 2
      vertex 46.99 5.45 0
      vertex 46.99 5.45 2
    endloop
  endfacet
  facet normal 1 0 0
    outer loop
      vertex 46.99 5.45 0
      vertex 46.99 1 2
      vertex 46.99 1 0
    endloop
  endfacet
  facet normal 0 1 -0
    outer loop
      vertex 46.99 5.45 0
      vertex 40 5.45 2
      vertex 46.99 5.45 2
    endloop
  endfacet
  facet normal 0 1 0
    outer loop
      vertex 40 5.45 2
      vertex 46.99 5.45 0
      vertex 40 5.45 0
    endloop
  endfacet
  facet normal -1 0 0
    outer loop
      vertex 59.17 1 0
      vertex 59.17 5.45 2
      vertex 59.17 5.45 0
    endloop
  endfacet
  facet normal -1 -0 0
    outer loop
      vertex 59.17 5.45 2
      vertex 59.17 1 0
      vertex 59.17 1 2
    endloop
  endfacet
  facet normal 0 1 -0
    outer loop
      vertex 66.16 5.45 0
      vertex 59.17 5.45 2
      vertex 66.16 5.45 2
    endloop
  endfacet
  facet normal 0 1 0
    outer loop
      vertex 59.17 5.45 2
      vertex 66.16 5.45 0
      vertex 59.17 5.45 0
    endloop
  endfacet
  facet normal 1 -0 0
    outer loop
      vertex 46.99 38.85 2
      vertex 46.99 43.3 0
      vertex 46.99 43.3 2
    endloop
  endfacet
  facet normal 1 0 0
    outer loop
      vertex 46.99 43.3 0
      vertex 46.99 38.85 2
      vertex 46.99 38.85 0
    endloop
  endfacet
  facet normal 0 -1 0
    outer loop
      vertex 40 38.85 0
      vertex 46.99 38.85 2
      vertex 40 38.85 2
    endloop
  endfacet
  facet normal 0 -1 -0
    outer loop
      vertex 46.99 38.85 2
      vertex 40 38.85 0
      vertex 46.99 38.85 0
    endloop
  endfacet
  facet normal -1 0 0
    outer loop
      vertex 59.17 38.85 0
      vertex 59.17 43.3 2
      vertex 59.17 43.3 0
    endloop
  endfacet
  facet normal -1 -0 0
    outer loop
      vertex 59.17 43.3 2
      vertex 59.17 38.85 0
      vertex 59.17 38.85 2
    endloop
  endfacet
  facet normal 0 -1 0
    outer loop
      vertex 59.17 38.85 0
      vertex 66.16 38.85 2
      vertex 59.17 38.85 2
    endloop
  endfacet
  facet normal 0 -1 -0
    outer loop
      vertex 66.16 38.85 2
      vertex 59.17 38.85 0
      vertex 66.16 38.85 0
    endloop
  endfacet
  facet normal 1 -0 0
    outer loop
      vertex 80 5.45 2
      vertex 80 38.85 0
      vertex 80 38.85 2
    endloop
  endfacet
  facet normal 1 0 0
    outer loop
      vertex 80 38.85 0
      vertex 80 5.45 2
      vertex 80 5.45 0
    endloop
  endfacet
  facet normal -1 0 0
    outer loop
      vertex 106.16 5.45 0
      vertex 106.16 38.85 2
      vertex 106.16 38.85 0
    endloop
  endfacet
  facet normal -1 -0 0
    outer loop
      vertex 106.16 38.85 2
      vertex 106.16 5.45 0
      vertex 106.16 5.45 2
    endloop
  endfacet
  facet normal 0 -1 0
    outer loop
      vertex 86.99 43.3 0
      vertex 99.17 43.3 2
      vertex 86.99 43.3 2
    endloop
  endfacet
  facet normal 0 -1 -0
    outer loop
      vertex 99.17 43.3 2
      vertex 86.99 43.3 0
      vertex 99.17 43.3 0
    endloop
  endfacet
  facet normal 0 1 -0
    outer loop
      vertex 99.17 1 0
      vertex 86.99 1 2
      vertex 99.17 1 2
    endloop
  endfacet
  facet normal 0 1 0
    outer loop
      vertex 86.99 1 2
      vertex 99.17 1 0
      vertex 86.99 1 0
    endloop
  endfacet
  facet normal 1 -0 0
    outer loop
      vertex 86.99 1 2
      vertex 86.99 5.45 0
      vertex 86.99 5.45 2
    endloop
  endfacet
  facet normal 1 0 0
    outer loop
      vertex 86.99 5.45 0
      vertex 86.99 1 2
      vertex 86.99 1 0
    endloop
  endfacet
  facet normal 0 1 -0
    outer loop
      vertex 86.99 5.45 0
      vertex 80 5.45 2
      vertex 86.99 5.45 2
    endloop
  endfacet
  facet normal 0 1 0
    outer loop
      vertex 80 5.45 2
      vertex 86.99 5.45 0
      vertex 80 5.45 0
    endloop
  endfacet
  facet normal -1 0 0
    outer loop
      vertex 99.17 1 0
      vertex 99.17 5.45 2
      vertex 99.17 5.45 0
    endloop
  endfacet
  facet normal -1 -0 0
    outer loop
      vertex 99.17 5.45 2
      vertex 99.17 1 0
      vertex 99.17 1 2
    endloop
  endfacet
  facet normal 0 1 -0
    outer loop
      vertex 106.16 5.45 0
      vertex 99.17 5.45 2
      vertex 106.16 5.45 2
    endloop
  endfacet
  facet normal 0 1 0
    outer loop
      vertex 99.17 5.45 2
      vertex 106.16 5.45 0
      vertex 99.17 5.45 0
    endloop
  endfacet
  facet normal 1 -0 0
    outer loop
      vertex 86.99 38.85 2
      vertex 86.99 43.3 0
      vertex 86.99 43.3 2
    endloop
  endfacet
  facet normal 1 0 0
    outer loop
      vertex 86.99 43.3 0
      vertex 86.99 38.85 2
      vertex 86.99 38.85 0
    endloop
  endfacet
  facet normal 0 -1 0
    outer loop
      vertex 80 38.85 0
      vertex 86.99 38.85 2
      vertex 80 38.85 2
    endloop
  endfacet
  facet normal 0 -1 -0
    outer loop
      vertex 86.99 38.85 2
      vertex 80 38.85 0
      vertex 86.99 38.85 0
    endloop
  endfacet
  facet normal -1 0 0
    outer loop
      vertex 99.17 38.85 0
      vertex 99.17 43.3 2
      vertex 99.17 43.3 0
    endloop
  endfacet
  facet normal -1 -0 0
    outer loop
      vertex 99.17 43.3 2
      vertex 99.17 38.85 0
      vertex 99.17 38.85 2
    endloop
  endfacet
  facet normal 0 -1 0
    outer loop
      vertex 99.17 38.85 0
      vertex 106.16 38.85 2
      vertex 99.17 38.85 2
    endloop
  endfacet
  facet normal 0 -1 -0
    outer loop
      vertex 106.16 38.85 2
      vertex 99.17 38.85 0
      vertex 106.16 38.85 0
    endloop
  endfacet
  facet normal 1 -0 0
    outer loop
      vertex 120 5.45 2
      vertex 120 38.85 0
      vertex 120 38.85 2
    endloop
  endfacet
  facet normal 1 0 0
    outer loop
      vertex 120 38.85 0
      vertex 120 5.45 2
      vertex 120 5.45 0
    endloop
  endfacet
  facet normal -1 0 0
    outer loop
      vertex 146.16 5.45 0
      vertex 146.16 38.85 2
      vertex 146.16 38.85 0
    endloop
  endfacet
  facet normal -1 -0 0
    outer loop
      vertex 146.16 38.85 2
      vertex 146.16 5.45 0
      vertex 146.16 5.45 2
    endloop
  endfacet
  facet normal 0 -1 0
    outer loop
      vertex 126.99 43.3 0
      vertex 139.17 43.3 2
      vertex 126.99 43.3 2
    endloop
  endfacet
  facet normal 0 -1 -0
    outer loop
      vertex 139.17 43.3 2
      vertex 126.99 43.3 0
      vertex 139.17 43.3 0
    endloop
  endfacet
  facet normal 0 1 -0
    outer loop
      vertex 139.17 1 0
      vertex 126.99 1 2
      vertex 139.17 1 2
    endloop
  endfacet
  facet normal 0 1 0
    outer loop
      vertex 126.99 1 2
      vertex 139.17 1 0
      vertex 126.99 1 0
    endloop
  endfacet
  facet normal 1 -0 0
    outer loop
      vertex 126.99 1 2
      vertex 126.99 5.45 0
      vertex 126.99 5.45 2
    endloop
  endfacet
  facet normal 1 0 0
    outer loop
      vertex 126.99 5.45 0
      vertex 126.99 1 2
      vertex 126.99 1 0
    endloop
  endfacet
  facet normal 0 1 -0
    outer loop
      vertex 126.99 5.45 0
      vertex 120 5.45 2
      vertex 126.99 5.45 2
    endloop
  endfacet
  facet normal 0 1 0
    outer loop
      vertex 120 5.45 2
      vertex 126.99 5.45 0
      vertex 120 5.45 0
    endloop
  endfacet
  facet normal -1 0 0
    outer loop
      vertex 139.17 1 0
      vertex 139.17 5.45 2
      vertex 139.17 5.45 0
    endloop
  endfacet
  facet normal -1 -0 0
    outer loop
      vertex 139.17 5.45 2
      vertex 139.17 1 0
      vertex 139.17 1 2
    endloop
  endfacet
  facet normal 0 1 -0
    outer loop
      vertex 146.16 5.45 0
      vertex 139.17 5.45 2
      vertex 146.16 5.45 2
    endloop
  endfacet
  facet normal 0 1 0
    outer loop
      vertex 139.17 5.45 2
      vertex 146.16 5.45 0
      vertex 139.17 5.45 0
    endloop
  endfacet
  facet normal 1 -0 0
    outer loop
      vertex 126.99 38.85 2
      vertex 126.99 43.3 0
      vertex 126.99 43.3 2
    endloop
  endfacet
  facet normal 1 0 0
    outer loop
      vertex 126.99 43.3 0
      vertex 126.99 38.85 2
      vertex 126.99 38.85 0
    endloop
  endfacet
  facet normal 0 -1 0
    outer loop
      vertex 120 38.85 0
      vertex 126.99 38.85 2
      vertex 120 38.85 2
    endloop
  endfacet
  facet normal 0 -1 -0
    outer loop
      vertex 126.99 38.85 2
      vertex 120 38.85 0
      vertex 126.99 38.85 0
    endloop
  endfacet
  facet normal -1 0 0
    outer loop
      vertex 139.17 38.85 0
      vertex 139.17 43.3 2
      vertex 139.17 43.3 0
    endloop
  endfacet
  facet normal -1 -0 0
    outer loop
      vertex 139.17 43.3 2
      vertex 139.17 38.85 0
      vertex 139.17 38.85 2
    endloop
  endfacet
  facet normal 0 -1 0
    outer loop
      vertex 139.17 38.85 0
      vertex 146.16 38.85 2
      vertex 139.17 38.85 2
    endloop
  endfacet
  facet normal 0 -1 -0
    outer loop
      vertex 146.16 38.85 2
      vertex 139.17 38.85 0
      vertex 146.16 38.85 0
    endloop
  endfacet
  facet normal 1 -0 0
    outer loop
      vertex 160 5.45 2
      vertex 160 26.15 0
      vertex 160 26.15 2
    endloop
  endfacet
  facet normal 1 0 0
    outer loop
      vertex 160 26.15 0
      vertex 160 5.45 2
      vertex 160 5.45 0
    endloop
  endfacet
  facet normal -1 0 0
    outer loop
      vertex 173.46 5.45 0
      vertex 173.46 26.15 2
      vertex 173.46 26.15 0
    endloop
  endfacet
  facet normal -1 -0 0
    outer loop
      vertex 173.46 26.15 2
      vertex 173.46 5.45 0
      vertex 173.46 5.45 2
    endloop
  endfacet
  facet normal 0 1 -0
    outer loop
      vertex 171.05 1 0
      vertex 162.41 1 2
      vertex 171.05 1 2
    endloop
  endfacet
  facet normal 0 1 0
    outer loop
      vertex 162.41 1 2
      vertex 171.05 1 0
      vertex 162.41 1 0
    endloop
  endfacet
  facet normal 0 -1 0
    outer loop
      vertex 162.41 30.6 0
      vertex 171.05 30.6 2
      vertex 162.41 30.6 2
    endloop
  endfacet
  facet normal 0 -1 -0
    outer loop
      vertex 171.05 30.6 2
      vertex 162.41 30.6 0
      vertex 171.05 30.6 0
    endloop
  endfacet
  facet normal 1 -0 0
    outer loop
      vertex 162.41 1 2
      vertex 162.41 5.45 0
      vertex 162.41 5.45 2
    endloop
  endfacet
  facet normal 1 0 0
    outer loop
      vertex 162.41 5.45 0
      vertex 162.41 1 2
      vertex 162.41 1 0
    endloop
  endfacet
  facet normal 0 1 -0
    outer loop
      vertex 162.41 5.45 0
      vertex 160 5.45 2
      vertex 162.41 5.45 2
    endloop
  endfacet
  facet normal 0 1 0
    outer loop
      vertex 160 5.45 2
      vertex 162.41 5.45 0
      vertex 160 5.45 0
    endloop
  endfacet
  facet normal -1 0 0
    outer loop
      vertex 171.05 1 0
      vertex 171.05 5.45 2
      vertex 171.05 5.45 0
    endloop
  endfacet
  facet normal -1 -0 0
    outer loop
      vertex 171.05 5.45 2
      vertex 171.05 1 0
      vertex 171.05 1 2
    endloop
  endfacet
  facet normal 0 1 -0
    outer loop
      vertex 173.46 5.45 0
      vertex 171.05 5.45 2
      vertex 173.46 5.45 2
    endloop
  endfacet
  facet normal 0 1 0
    outer loop
      vertex 171.05 5.45 2
      vertex 173.46 5.45 0
      vertex 171.05 5.45 0
    endloop
  endfacet
  facet normal 1 -0 0
    outer loop
      vertex 162.41 26.15 2
      vertex 162.41 30.6 0
      vertex 162.41 30.6 2
    endloop
  endfacet
  facet normal 1 0 0
    outer loop
      vertex 162.41 30.6 0
      vertex 162.41 26.15 2
      vertex 162.41 26.15 0
    endloop
  endfacet
  facet normal 0 -1 0
    outer loop
      vertex 160 26.15 0
      vertex 162.41 26.15 2
      vertex 160 26.15 2
    endloop
  endfacet
  facet normal 0 -1 -0
    outer loop
      vertex 162.41 26.15 2
      vertex 160 26.15 0
      vertex 162.41 26.15 0
    endloop
  endfacet
  facet normal -1 0 0
    outer loop
      vertex 171.05 26.15 0
      vertex 171.05 30.6 2
      vertex 171.05 30.6 0
    endloop
  endfacet
  facet normal -1 -0 0
    outer loop
      vertex 171.05 30.6 2
      vertex 171.05 26.15 0
      vertex 171.05 26.15 2
    endloop
  endfacet
  facet normal 0 -1 0
    outer loop
      vertex 171.05 26.15 0
      vertex 173.46 26.15 2
      vertex 171.05 26.15 2
    endloop
  endfacet
  facet normal 0 -1 -0
    outer loop
      vertex 173.46 26.15 2
      vertex 171.05 26.15 0
      vertex 173.46 26.15 0
    endloop
  endfacet
  facet normal 1 -0 0
    outer loop
      vertex 183 5.45 2
      vertex 183 19.8 0
      vertex 183 19.8 2
    endloop
  endfacet
  facet normal 1 0 0
    outer loop
      vertex 183 19.8 0
      vertex 183 5.45 2
      vertex 183 5.45 0
    endloop
  endfacet
  facet normal -1 0 0
    outer loop
      vertex 196.46 5.45 0
      vertex 196.46 19.8 2
      vertex 196.46 19.8 0
    endloop
  endfacet
  facet normal -1 -0 0
    outer loop
      vertex 196.46 19.8 2
      vertex 196.46 5.45 0
      vertex 196.46 5.45 2
    endloop
  endfacet
  facet normal 0 -1 0
    outer loop
      vertex 185.41 24.25 0
      vertex 194.05 24.25 2
      vertex 185.41 24.25 2
    endloop
  endfacet
  facet normal 0 -1 -0
    outer loop
      vertex 194.05 24.25 2
      vertex 185.41 24.25 0
      vertex 194.05 24.25 0
    endloop
  endfacet
  facet normal 0 1 -0
    outer loop
      vertex 194.05 1 0
      vertex 185.41 1 2
      vertex 194.05 1 2
    endloop
  endfacet
  facet normal 0 1 0
    outer loop
      vertex 185.41 1 2
      vertex 194.05 1 0
      vertex 185.41 1 0
    endloop
  endfacet
  facet normal 1 -0 0
    outer loop
      vertex 185.41 1 2
      vertex 185.41 5.45 0
      vertex 185.41 5.45 2
    endloop
  endfacet
  facet normal 1 0 0
    outer loop
      vertex 185.41 5.45 0
      vertex 185.41 1 2
      vertex 185.41 1 0
    endloop
  endfacet
  facet normal 0 1 -0
    outer loop
      vertex 185.41 5.45 0
      vertex 183 5.45 2
      vertex 185.41 5.45 2
    endloop
  endfacet
  facet normal 0 1 0
    outer loop
      vertex 183 5.45 2
      vertex 185.41 5.45 0
      vertex 183 5.45 0
    endloop
  endfacet
  facet normal -1 0 0
    outer loop
      vertex 194.05 1 0
      vertex 194.05 5.45 2
      vertex 194.05 5.45 0
    endloop
  endfacet
  facet normal -1 -0 0
    outer loop
      vertex 194.05 5.45 2
      vertex 194.05 1 0
      vertex 194.05 1 2
    endloop
  endfacet
  facet normal 0 1 -0
    outer loop
      vertex 196.46 5.45 0
      vertex 194.05 5.45 2
      vertex 196.46 5.45 2
    endloop
  endfacet
  facet normal 0 1 0
    outer loop
      vertex 194.05 5.45 2
      vertex 196.46 5.45 0
      vertex 194.05 5.45 0
    endloop
  endfacet
  facet normal 1 -0 0
    outer loop
      vertex 185.41 19.8 2
      vertex 185.41 24.25 0
      vertex 185.41 24.25 2
    endloop
  endfacet
  facet normal 1 0 0
    outer loop
      vertex 185.41 24.25 0
      vertex 185.41 19.8 2
      vertex 185.41 19.8 0
    endloop
  endfacet
  facet normal 0 -1 0
    outer loop
      vertex 183 19.8 0
      vertex 185.41 19.8 2
      vertex 183 19.8 2
    endloop
  endfacet
  facet normal 0 -1 -0
    outer loop
      vertex 185.41 19.8 2
      vertex 183 19.8 0
      vertex 185.41 19.8 0
    endloop
  endfacet
  facet normal -1 0 0
    outer loop
      vertex 194.05 19.8 0
      vertex 194.05 24.25 2
      vertex 194.05 24.25 0
    endloop
  endfacet
  facet normal -1 -0 0
    outer loop
      vertex 194.05 24.25 2
      vertex 194.05 19.8 0
      vertex 194.05 19.8 2
    endloop
  endfacet
  facet normal 0 -1 0
    outer loop
      vertex 194.05 19.8 0
      vertex 196.46 19.8 2
      vertex 194.05 19.8 2
    endloop
  endfacet
  facet normal 0 -1 -0
    outer loop
      vertex 196.46 19.8 2
      vertex 194.05 19.8 0
      vertex 196.46 19.8 0
    endloop
  endfacet
  facet normal -1 0 0
    outer loop
      vertex -6 53 0
      vertex -6 46.36 2
      vertex -6 53 2
    endloop
  endfacet
  facet normal -1 0 0
    outer loop
      vertex -6 -12 0
      vertex -6 46.36 2
      vertex -6 53 0
    endloop
  endfacet
  facet normal -1 -0 0
    outer loop
      vertex -6 46.36 2
      vertex -6 -12 0
      vertex -6 -10 2
    endloop
  endfacet
  facet normal -1 0 0
    outer loop
      vertex -6 -12 40
      vertex -6 -10 2
      vertex -6 -12 0
    endloop
  endfacet
  facet normal -1 0 0
    outer loop
      vertex -6 -10 2
      vertex -6 -12 40
      vertex -6 -10 40
    endloop
  endfacet
  facet normal -0 0 1
    outer loop
      vertex -4 53 2
      vertex 202 52.99 2
      vertex 202 53 2
    endloop
  endfacet
  facet normal 0 0 1
    outer loop
      vertex 202 52.99 2
      vertex -4 53 2
      vertex -4 52.99 2
    endloop
  endfacet
  facet normal 0 0 1
    outer loop
      vertex -6 52.9888 2
      vertex -6 53 2
      vertex -6 46.36 2
    endloop
  endfacet
  facet normal 0 0 1
    outer loop
      vertex 9.99 5.45 2
      vertex 3 5.45 2
      vertex 9.99 1 2
    endloop
  endfacet
  facet normal 0 0 1
    outer loop
      vertex 29.16 32.5 2
      vertex 22.17 36.95 2
      vertex 22.17 32.5 2
    endloop
  endfacet
  facet normal 0 0 1
    outer loop
      vertex 46.99 5.45 2
      vertex 40 5.45 2
      vertex 46.99 1 2
    endloop
  endfacet
  facet normal 0 0 1
    outer loop
      vertex 66.16 38.85 2
      vertex 59.17 43.3 2
      vertex 59.17 38.85 2
    endloop
  endfacet
  facet normal 0 0 1
    outer loop
      vertex 86.99 5.45 2
      vertex 80 5.45 2
      vertex 86.99 1 2
    endloop
  endfacet
  facet normal 0 0 1
    outer loop
      vertex 106.16 38.85 2
      vertex 99.17 43.3 2
      vertex 99.17 38.85 2
    endloop
  endfacet
  facet normal 0 0 1
    outer loop
      vertex 126.99 5.45 2
      vertex 120 5.45 2
      vertex 126.99 1 2
    endloop
  endfacet
  facet normal 0 0 1
    outer loop
      vertex 146.16 38.85 2
      vertex 139.17 43.3 2
      vertex 139.17 38.85 2
    endloop
  endfacet
  facet normal 0 0 1
    outer loop
      vertex 162.41 5.45 2
      vertex 160 5.45 2
      vertex 162.41 1 2
    endloop
  endfacet
  facet normal 0 0 1
    outer loop
      vertex 173.46 26.15 2
      vertex 171.05 30.6 2
      vertex 171.05 26.15 2
    endloop
  endfacet
  facet normal 0 0 1
    outer loop
      vertex 185.41 5.45 2
      vertex 183 5.45 2
      vertex 185.41 1 2
    endloop
  endfacet
  facet normal 0 0 1
    outer loop
      vertex 202 46.36 2
      vertex 196.46 19.8 2
      vertex 202 -2 2
    endloop
  endfacet
  facet normal 0 0 1
    outer loop
      vertex 202 46.36 2
      vertex 194.05 24.25 2
      vertex 196.46 19.8 2
    endloop
  endfacet
  facet normal 0 0 1
    outer loop
      vertex 202 46.36 2
      vertex 185.41 24.25 2
      vertex 194.05 24.25 2
    endloop
  endfacet
  facet normal 0 0 1
    outer loop
      vertex 185.41 24.25 2
      vertex 183 19.8 2
      vertex 185.41 19.8 2
    endloop
  endfacet
  facet normal 0 0 1
    outer loop
      vertex 173.46 5.45 2
      vertex 183 19.8 2
      vertex 173.46 26.15 2
    endloop
  endfacet
  facet normal 0 0 1
    outer loop
      vertex 185.41 24.25 2
      vertex 173.46 26.15 2
      vertex 183 19.8 2
    endloop
  endfacet
  facet normal -0 0 1
    outer loop
      vertex 171.05 30.6 2
      vertex 185.41 24.25 2
      vertex 202 46.36 2
    endloop
  endfacet
  facet normal 0 0 1
    outer loop
      vertex 185.41 24.25 2
      vertex 171.05 30.6 2
      vertex 173.46 26.15 2
    endloop
  endfacet
  facet normal -0 0 1
    outer loop
      vertex 146.16 38.85 2
      vertex 171.05 30.6 2
      vertex 202 46.36 2
    endloop
  endfacet
  facet normal 0 0 1
    outer loop
      vertex 162.41 30.6 2
      vertex 160 26.15 2
      vertex 162.41 26.15 2
    endloop
  endfacet
  facet normal 0 0 1
    outer loop
      vertex 146.16 5.45 2
      vertex 160 26.15 2
      vertex 146.16 38.85 2
    endloop
  endfacet
  facet normal 0 0 1
    outer loop
      vertex 162.41 30.6 2
      vertex 146.16 38.85 2
      vertex 160 26.15 2
    endloop
  endfacet
  facet normal 0 0 1
    outer loop
      vertex 171.05 30.6 2
      vertex 146.16 38.85 2
      vertex 162.41 30.6 2
    endloop
  endfacet
  facet normal 0 0 1
    outer loop
      vertex 202 46.36 2
      vertex 139.17 43.3 2
      vertex 146.16 38.85 2
    endloop
  endfacet
  facet normal 0 0 1
    outer loop
      vertex 202 46.36 2
      vertex 126.99 43.3 2
      vertex 139.17 43.3 2
    endloop
  endfacet
  facet normal 0 0 1
    outer loop
      vertex 126.99 43.3 2
      vertex 120 38.85 2
      vertex 126.99 38.85 2
    endloop
  endfacet
  facet normal 0 0 1
    outer loop
      vertex 120 38.85 2
      vertex 106.16 38.85 2
      vertex 120 5.45 2
    endloop
  endfacet
  facet normal 0 0 1
    outer loop
      vertex 126.99 43.3 2
      vertex 106.16 38.85 2
      vertex 120 38.85 2
    endloop
  endfacet
  facet normal 0 0 1
    outer loop
      vertex 126.99 43.3 2
      vertex 99.17 43.3 2
      vertex 106.16 38.85 2
    endloop
  endfacet
  facet normal 0 0 1
    outer loop
      vertex 202 46.36 2
      vertex 99.17 43.3 2
      vertex 126.99 43.3 2
    endloop
  endfacet
  facet normal 0 0 1
    outer loop
      vertex 202 46.36 2
      vertex 86.99 43.3 2
      vertex 99.17 43.3 2
    endloop
  endfacet
  facet normal 0 0 1
    outer loop
      vertex 86.99 43.3 2
      vertex 80 38.85 2
      vertex 86.99 38.85 2
    endloop
  endfacet
  facet normal 0 0 1
    outer loop
      vertex 80 38.85 2
      vertex 66.16 38.85 2
      vertex 80 5.45 2
    endloop
  endfacet
  facet normal 0 0 1
    outer loop
      vertex 86.99 43.3 2
      vertex 66.16 38.85 2
      vertex 80 38.85 2
    endloop
  endfacet
  facet normal 0 0 1
    outer loop
      vertex 86.99 43.3 2
      vertex 59.17 43.3 2
      vertex 66.16 38.85 2
    endloop
  endfacet
  facet normal -0 0 1
    outer loop
      vertex -4 46.36 2
      vertex 86.99 43.3 2
      vertex 202 46.36 2
    endloop
  endfacet
  facet normal 0 0 1
    outer loop
      vertex 86.99 43.3 2
      vertex -4 46.36 2
      vertex 59.17 43.3 2
    endloop
  endfacet
  facet normal 0 0 1
    outer loop
      vertex 46.99 43.3 2
      vertex 40 38.85 2
      vertex 46.99 38.85 2
    endloop
  endfacet
  facet normal 0 0 1
    outer loop
      vertex 40 38.85 2
      vertex 29.16 32.5 2
      vertex 40 5.45 2
    endloop
  endfacet
  facet normal 0 0 1
    outer loop
      vertex 22.17 36.95 2
      vertex 40 38.85 2
      vertex 46.99 43.3 2
    endloop
  endfacet
  facet normal 0 0 1
    outer loop
      vertex 40 38.85 2
      vertex 22.17 36.95 2
      vertex 29.16 32.5 2
    endloop
  endfacet
  facet normal 0 0 1
    outer loop
      vertex -4 46.36 2
      vertex 22.17 36.95 2
      vertex 46.99 43.3 2
    endloop
  endfacet
  facet normal 0 0 1
    outer loop
      vertex 9.99 36.95 2
      vertex 3 32.5 2
      vertex 9.99 32.5 2
    endloop
  endfacet
  facet normal 0 0 1
    outer loop
      vertex -4 -2 2
      vertex 3 32.5 2
      vertex -4 46.36 2
    endloop
  endfacet
  facet normal 0 0 1
    outer loop
      vertex 9.99 36.95 2
      vertex -4 46.36 2
      vertex 3 32.5 2
    endloop
  endfacet
  facet normal 0 0 1
    outer loop
      vertex 22.17 36.95 2
      vertex -4 46.36 2
      vertex 9.99 36.95 2
    endloop
  endfacet
  facet normal 0 0 1
    outer loop
      vertex 59.17 43.3 2
      vertex -4 46.36 2
      vertex 46.99 43.3 2
    endloop
  endfacet
  facet normal -0 0 1
    outer loop
      vertex 196.46 5.45 2
      vertex 202 -2 2
      vertex 196.46 19.8 2
    endloop
  endfacet
  facet normal 0 0 1
    outer loop
      vertex 194.05 1 2
      vertex 196.46 5.45 2
      vertex 194.05 5.45 2
    endloop
  endfacet
  facet normal 0 0 1
    outer loop
      vertex 196.46 5.45 2
      vertex 194.05 1 2
      vertex 202 -2 2
    endloop
  endfacet
  facet normal -0 0 1
    outer loop
      vertex 185.41 1 2
      vertex 202 -2 2
      vertex 194.05 1 2
    endloop
  endfacet
  facet normal 0 0 1
    outer loop
      vertex 183 19.8 2
      vertex 173.46 5.45 2
      vertex 183 5.45 2
    endloop
  endfacet
  facet normal -0 0 1
    outer loop
      vertex 173.46 5.45 2
      vertex 185.41 1 2
      vertex 183 5.45 2
    endloop
  endfacet
  facet normal 0 0 1
    outer loop
      vertex 171.05 1 2
      vertex 173.46 5.45 2
      vertex 171.05 5.45 2
    endloop
  endfacet
  facet normal 0 0 1
    outer loop
      vertex 173.46 5.45 2
      vertex 171.05 1 2
      vertex 185.41 1 2
    endloop
  endfacet
  facet normal -0 0 1
    outer loop
      vertex 171.05 1 2
      vertex 202 -2 2
      vertex 185.41 1 2
    endloop
  endfacet
  facet normal -0 0 1
    outer loop
      vertex 162.41 1 2
      vertex 202 -2 2
      vertex 171.05 1 2
    endloop
  endfacet
  facet normal 0 0 1
    outer loop
      vertex 160 26.15 2
      vertex 146.16 5.45 2
      vertex 160 5.45 2
    endloop
  endfacet
  facet normal -0 0 1
    outer loop
      vertex 146.16 5.45 2
      vertex 162.41 1 2
      vertex 160 5.45 2
    endloop
  endfacet
  facet normal 0 0 1
    outer loop
      vertex 139.17 1 2
      vertex 146.16 5.45 2
      vertex 139.17 5.45 2
    endloop
  endfacet
  facet normal 0 0 1
    outer loop
      vertex 146.16 5.45 2
      vertex 139.17 1 2
      vertex 162.41 1 2
    endloop
  endfacet
  facet normal -0 0 1
    outer loop
      vertex 139.17 1 2
      vertex 202 -2 2
      vertex 162.41 1 2
    endloop
  endfacet
  facet normal -0 0 1
    outer loop
      vertex 126.99 1 2
      vertex 202 -2 2
      vertex 139.17 1 2
    endloop
  endfacet
  facet normal 0 0 1
    outer loop
      vertex 106.16 5.45 2
      vertex 120 5.45 2
      vertex 106.16 38.85 2
    endloop
  endfacet
  facet normal -0 0 1
    outer loop
      vertex 106.16 5.45 2
      vertex 126.99 1 2
      vertex 120 5.45 2
    endloop
  endfacet
  facet normal 0 0 1
    outer loop
      vertex 99.17 1 2
      vertex 106.16 5.45 2
      vertex 99.17 5.45 2
    endloop
  endfacet
  facet normal 0 0 1
    outer loop
      vertex 106.16 5.45 2
      vertex 99.17 1 2
      vertex 126.99 1 2
    endloop
  endfacet
  facet normal -0 0 1
    outer loop
      vertex 99.17 1 2
      vertex 202 -2 2
      vertex 126.99 1 2
    endloop
  endfacet
  facet normal -0 0 1
    outer loop
      vertex 86.99 1 2
      vertex 202 -2 2
      vertex 99.17 1 2
    endloop
  endfacet
  facet normal 0 0 1
    outer loop
      vertex 66.16 5.45 2
      vertex 80 5.45 2
      vertex 66.16 38.85 2
    endloop
  endfacet
  facet normal -0 0 1
    outer loop
      vertex 66.16 5.45 2
      vertex 86.99 1 2
      vertex 80 5.45 2
    endloop
  endfacet
  facet normal 0 0 1
    outer loop
      vertex 59.17 1 2
      vertex 66.16 5.45 2
      vertex 59.17 5.45 2
    endloop
  endfacet
  facet normal 0 0 1
    outer loop
      vertex 66.16 5.45 2
      vertex 59.17 1 2
      vertex 86.99 1 2
    endloop
  endfacet
  facet normal 0 0 1
    outer loop
      vertex -4 -2 2
      vertex 86.99 1 2
      vertex 59.17 1 2
    endloop
  endfacet
  facet normal 0 0 1
    outer loop
      vertex -4 -2 2
      vertex 59.17 1 2
      vertex 46.99 1 2
    endloop
  endfacet
  facet normal 0 0 1
    outer loop
      vertex 29.16 5.45 2
      vertex 40 5.45 2
      vertex 29.16 32.5 2
    endloop
  endfacet
  facet normal -0 0 1
    outer loop
      vertex 29.16 5.45 2
      vertex 46.99 1 2
      vertex 40 5.45 2
    endloop
  endfacet
  facet normal 0 0 1
    outer loop
      vertex 22.17 1 2
      vertex 29.16 5.45 2
      vertex 22.17 5.45 2
    endloop
  endfacet
  facet normal 0 0 1
    outer loop
      vertex 29.16 5.45 2
      vertex 22.17 1 2
      vertex 46.99 1 2
    endloop
  endfacet
  facet normal 0 0 1
    outer loop
      vertex -4 -2 2
      vertex 46.99 1 2
      vertex 22.17 1 2
    endloop
  endfacet
  facet normal 0 0 1
    outer loop
      vertex -4 -2 2
      vertex 22.17 1 2
      vertex 9.99 1 2
    endloop
  endfacet
  facet normal 0 0 1
    outer loop
      vertex 86.99 1 2
      vertex -4 -2 2
      vertex 202 -2 2
    endloop
  endfacet
  facet normal 0 0 1
    outer loop
      vertex 3 5.45 2
      vertex -4 -2 2
      vertex 9.99 1 2
    endloop
  endfacet
  facet normal 0 0 1
    outer loop
      vertex 3 32.5 2
      vertex -4 -2 2
      vertex 3 5.45 2
    endloop
  endfacet
  facet normal 0 0 1
    outer loop
      vertex 196.46 19.8 2
      vertex 194.05 24.25 2
      vertex 194.05 19.8 2
    endloop
  endfacet
  facet normal 1 0 0
    outer loop
      vertex 204 -5.37001 37.3
      vertex 204 -12 41.3
      vertex 204 -5.52368 37.3
    endloop
  endfacet
  facet normal 1 0 0
    outer loop
      vertex 204 -12 0
      vertex 204 53 2
      vertex 204 -5.52368 37.3
    endloop
  endfacet
  facet normal 1 0 0
    outer loop
      vertex 204 -12 0
      vertex 204 -5.52368 37.3
      vertex 204 -12 41.3
    endloop
  endfacet
  facet normal 1 0 0
    outer loop
      vertex 204 53 2
      vertex 204 -12 0
      vertex 204 53 0
    endloop
  endfacet
  facet normal 0 0 -1
    outer loop
      vertex 9.99 32.5 0
      vertex 3 32.5 0
      vertex 9.99 36.95 0
    endloop
  endfacet
  facet normal -0 0 -1
    outer loop
      vertex 29.16 5.45 0
      vertex 22.17 1 0
      vertex 22.17 5.45 0
    endloop
  endfacet
  facet normal 0 0 -1
    outer loop
      vertex 46.99 38.85 0
      vertex 40 38.85 0
      vertex 46.99 43.3 0
    endloop
  endfacet
  facet normal -0 0 -1
    outer loop
      vertex 66.16 5.45 0
      vertex 59.17 1 0
      vertex 59.17 5.45 0
    endloop
  endfacet
  facet normal 0 0 -1
    outer loop
      vertex 86.99 38.85 0
      vertex 80 38.85 0
      vertex 86.99 43.3 0
    endloop
  endfacet
  facet normal -0 0 -1
    outer loop
      vertex 106.16 5.45 0
      vertex 99.17 1 0
      vertex 99.17 5.45 0
    endloop
  endfacet
  facet normal 0 0 -1
    outer loop
      vertex 126.99 38.85 0
      vertex 120 38.85 0
      vertex 126.99 43.3 0
    endloop
  endfacet
  facet normal -0 0 -1
    outer loop
      vertex 146.16 5.45 0
      vertex 139.17 1 0
      vertex 139.17 5.45 0
    endloop
  endfacet
  facet normal 0 0 -1
    outer loop
      vertex 162.41 26.15 0
      vertex 160 26.15 0
      vertex 162.41 30.6 0
    endloop
  endfacet
  facet normal 0 0 -1
    outer loop
      vertex 185.41 19.8 0
      vertex 183 19.8 0
      vertex 185.41 24.25 0
    endloop
  endfacet
  facet normal 0 0 -1
    outer loop
      vertex 196.46 19.8 0
      vertex 204 -12 0
      vertex 196.46 5.45 0
    endloop
  endfacet
  facet normal 0 0 -1
    outer loop
      vertex 204 -12 0
      vertex 194.05 1 0
      vertex 196.46 5.45 0
    endloop
  endfacet
  facet normal 0 0 -1
    outer loop
      vertex 204 -12 0
      vertex 185.41 1 0
      vertex 194.05 1 0
    endloop
  endfacet
  facet normal 0 0 -1
    outer loop
      vertex 185.41 1 0
      vertex 183 5.45 0
      vertex 185.41 5.45 0
    endloop
  endfacet
  facet normal 0 0 -1
    outer loop
      vertex 183 5.45 0
      vertex 173.46 5.45 0
      vertex 183 19.8 0
    endloop
  endfacet
  facet normal 0 0 -1
    outer loop
      vertex 185.41 1 0
      vertex 173.46 5.45 0
      vertex 183 5.45 0
    endloop
  endfacet
  facet normal 0 0 -1
    outer loop
      vertex 171.05 1 0
      vertex 185.41 1 0
      vertex 204 -12 0
    endloop
  endfacet
  facet normal 0 0 -1
    outer loop
      vertex 185.41 1 0
      vertex 171.05 1 0
      vertex 173.46 5.45 0
    endloop
  endfacet
  facet normal 0 0 -1
    outer loop
      vertex 204 -12 0
      vertex 162.41 1 0
      vertex 171.05 1 0
    endloop
  endfacet
  facet normal 0 0 -1
    outer loop
      vertex 162.41 1 0
      vertex 160 5.45 0
      vertex 162.41 5.45 0
    endloop
  endfacet
  facet normal 0 0 -1
    outer loop
      vertex 160 5.45 0
      vertex 146.16 5.45 0
      vertex 160 26.15 0
    endloop
  endfacet
  facet normal 0 0 -1
    outer loop
      vertex 162.41 1 0
      vertex 146.16 5.45 0
      vertex 160 5.45 0
    endloop
  endfacet
  facet normal 0 0 -1
    outer loop
      vertex 139.17 1 0
      vertex 162.41 1 0
      vertex 204 -12 0
    endloop
  endfacet
  facet normal 0 0 -1
    outer loop
      vertex 162.41 1 0
      vertex 139.17 1 0
      vertex 146.16 5.45 0
    endloop
  endfacet
  facet normal 0 0 -1
    outer loop
      vertex 204 -12 0
      vertex 126.99 1 0
      vertex 139.17 1 0
    endloop
  endfacet
  facet normal 0 0 -1
    outer loop
      vertex 126.99 1 0
      vertex 120 5.45 0
      vertex 126.99 5.45 0
    endloop
  endfacet
  facet normal 0 0 -1
    outer loop
      vertex 120 5.45 0
      vertex 106.16 5.45 0
      vertex 120 38.85 0
    endloop
  endfacet
  facet normal 0 0 -1
    outer loop
      vertex 126.99 1 0
      vertex 106.16 5.45 0
      vertex 120 5.45 0
    endloop
  endfacet
  facet normal 0 0 -1
    outer loop
      vertex 126.99 1 0
      vertex 99.17 1 0
      vertex 106.16 5.45 0
    endloop
  endfacet
  facet normal 0 0 -1
    outer loop
      vertex 204 -12 0
      vertex 99.17 1 0
      vertex 126.99 1 0
    endloop
  endfacet
  facet normal 0 0 -1
    outer loop
      vertex -6 -12 0
      vertex 99.17 1 0
      vertex 204 -12 0
    endloop
  endfacet
  facet normal 0 0 -1
    outer loop
      vertex 86.99 1 0
      vertex 80 5.45 0
      vertex 86.99 5.45 0
    endloop
  endfacet
  facet normal 0 0 -1
    outer loop
      vertex 80 5.45 0
      vertex 66.16 5.45 0
      vertex 80 38.85 0
    endloop
  endfacet
  facet normal 0 0 -1
    outer loop
      vertex 86.99 1 0
      vertex 66.16 5.45 0
      vertex 80 5.45 0
    endloop
  endfacet
  facet normal 0 0 -1
    outer loop
      vertex 86.99 1 0
      vertex 59.17 1 0
      vertex 66.16 5.45 0
    endloop
  endfacet
  facet normal -0 0 -1
    outer loop
      vertex 99.17 1 0
      vertex -6 -12 0
      vertex 86.99 1 0
    endloop
  endfacet
  facet normal -0 0 -1
    outer loop
      vertex 86.99 1 0
      vertex -6 -12 0
      vertex 59.17 1 0
    endloop
  endfacet
  facet normal 0 0 -1
    outer loop
      vertex 46.99 1 0
      vertex 40 5.45 0
      vertex 46.99 5.45 0
    endloop
  endfacet
  facet normal 0 0 -1
    outer loop
      vertex 29.16 32.5 0
      vertex 40 5.45 0
      vertex 29.16 5.45 0
    endloop
  endfacet
  facet normal 0 0 -1
    outer loop
      vertex 46.99 1 0
      vertex 29.16 5.45 0
      vertex 40 5.45 0
    endloop
  endfacet
  facet normal 0 0 -1
    outer loop
      vertex 46.99 1 0
      vertex 22.17 1 0
      vertex 29.16 5.45 0
    endloop
  endfacet
  facet normal -0 0 -1
    outer loop
      vertex 59.17 1 0
      vertex -6 -12 0
      vertex 46.99 1 0
    endloop
  endfacet
  facet normal -0 0 -1
    outer loop
      vertex 46.99 1 0
      vertex -6 -12 0
      vertex 22.17 1 0
    endloop
  endfacet
  facet normal 0 0 -1
    outer loop
      vertex 9.99 1 0
      vertex 3 5.45 0
      vertex 9.99 5.45 0
    endloop
  endfacet
  facet normal -0 0 -1
    outer loop
      vertex 3 5.45 0
      vertex -6 -12 0
      vertex 3 32.5 0
    endloop
  endfacet
  facet normal -0 0 -1
    outer loop
      vertex 9.99 1 0
      vertex -6 -12 0
      vertex 3 5.45 0
    endloop
  endfacet
  facet normal -0 0 -1
    outer loop
      vertex 22.17 1 0
      vertex -6 -12 0
      vertex 9.99 1 0
    endloop
  endfacet
  facet normal 0 0 -1
    outer loop
      vertex 204 -12 0
      vertex 196.46 19.8 0
      vertex 204 53 0
    endloop
  endfacet
  facet normal 0 0 -1
    outer loop
      vertex 194.05 24.25 0
      vertex 196.46 19.8 0
      vertex 194.05 19.8 0
    endloop
  endfacet
  facet normal 0 0 -1
    outer loop
      vertex 196.46 19.8 0
      vertex 194.05 24.25 0
      vertex 204 53 0
    endloop
  endfacet
  facet normal 0 0 -1
    outer loop
      vertex 185.41 24.25 0
      vertex 204 53 0
      vertex 194.05 24.25 0
    endloop
  endfacet
  facet normal 0 0 -1
    outer loop
      vertex 173.46 26.15 0
      vertex 183 19.8 0
      vertex 173.46 5.45 0
    endloop
  endfacet
  facet normal 0 0 -1
    outer loop
      vertex 183 19.8 0
      vertex 173.46 26.15 0
      vertex 185.41 24.25 0
    endloop
  endfacet
  facet normal 0 0 -1
    outer loop
      vertex 171.05 30.6 0
      vertex 185.41 24.25 0
      vertex 173.46 26.15 0
    endloop
  endfacet
  facet normal 0 0 -1
    outer loop
      vertex 171.05 30.6 0
      vertex 173.46 26.15 0
      vertex 171.05 26.15 0
    endloop
  endfacet
  facet normal 0 0 -1
    outer loop
      vertex 185.41 24.25 0
      vertex 171.05 30.6 0
      vertex 204 53 0
    endloop
  endfacet
  facet normal 0 0 -1
    outer loop
      vertex 146.16 38.85 0
      vertex 171.05 30.6 0
      vertex 162.41 30.6 0
    endloop
  endfacet
  facet normal 0 0 -1
    outer loop
      vertex 146.16 38.85 0
      vertex 160 26.15 0
      vertex 146.16 5.45 0
    endloop
  endfacet
  facet normal 0 0 -1
    outer loop
      vertex 160 26.15 0
      vertex 146.16 38.85 0
      vertex 162.41 30.6 0
    endloop
  endfacet
  facet normal 0 0 -1
    outer loop
      vertex 171.05 30.6 0
      vertex 146.16 38.85 0
      vertex 204 53 0
    endloop
  endfacet
  facet normal 0 0 -1
    outer loop
      vertex 139.17 43.3 0
      vertex 146.16 38.85 0
      vertex 139.17 38.85 0
    endloop
  endfacet
  facet normal 0 0 -1
    outer loop
      vertex 146.16 38.85 0
      vertex 139.17 43.3 0
      vertex 204 53 0
    endloop
  endfacet
  facet normal 0 0 -1
    outer loop
      vertex 126.99 43.3 0
      vertex 204 53 0
      vertex 139.17 43.3 0
    endloop
  endfacet
  facet normal 0 0 -1
    outer loop
      vertex 106.16 38.85 0
      vertex 120 38.85 0
      vertex 106.16 5.45 0
    endloop
  endfacet
  facet normal 0 0 -1
    outer loop
      vertex 106.16 38.85 0
      vertex 126.99 43.3 0
      vertex 120 38.85 0
    endloop
  endfacet
  facet normal 0 0 -1
    outer loop
      vertex 99.17 43.3 0
      vertex 106.16 38.85 0
      vertex 99.17 38.85 0
    endloop
  endfacet
  facet normal 0 0 -1
    outer loop
      vertex 106.16 38.85 0
      vertex 99.17 43.3 0
      vertex 126.99 43.3 0
    endloop
  endfacet
  facet normal 0 0 -1
    outer loop
      vertex 99.17 43.3 0
      vertex 204 53 0
      vertex 126.99 43.3 0
    endloop
  endfacet
  facet normal 0 0 -1
    outer loop
      vertex -6 53 0
      vertex 99.17 43.3 0
      vertex 86.99 43.3 0
    endloop
  endfacet
  facet normal 0 0 -1
    outer loop
      vertex 66.16 38.85 0
      vertex 80 38.85 0
      vertex 66.16 5.45 0
    endloop
  endfacet
  facet normal 0 0 -1
    outer loop
      vertex 66.16 38.85 0
      vertex 86.99 43.3 0
      vertex 80 38.85 0
    endloop
  endfacet
  facet normal 0 0 -1
    outer loop
      vertex 59.17 43.3 0
      vertex 66.16 38.85 0
      vertex 59.17 38.85 0
    endloop
  endfacet
  facet normal 0 0 -1
    outer loop
      vertex 66.16 38.85 0
      vertex 59.17 43.3 0
      vertex 86.99 43.3 0
    endloop
  endfacet
  facet normal 0 0 -1
    outer loop
      vertex -6 53 0
      vertex 86.99 43.3 0
      vertex 59.17 43.3 0
    endloop
  endfacet
  facet normal 0 0 -1
    outer loop
      vertex -6 53 0
      vertex 59.17 43.3 0
      vertex 46.99 43.3 0
    endloop
  endfacet
  facet normal 0 0 -1
    outer loop
      vertex 40 5.45 0
      vertex 29.16 32.5 0
      vertex 40 38.85 0
    endloop
  endfacet
  facet normal 0 0 -1
    outer loop
      vertex 22.17 36.95 0
      vertex 40 38.85 0
      vertex 29.16 32.5 0
    endloop
  endfacet
  facet normal 0 0 -1
    outer loop
      vertex 22.17 36.95 0
      vertex 29.16 32.5 0
      vertex 22.17 32.5 0
    endloop
  endfacet
  facet normal -0 0 -1
    outer loop
      vertex 40 38.85 0
      vertex 22.17 36.95 0
      vertex 46.99 43.3 0
    endloop
  endfacet
  facet normal 0 0 -1
    outer loop
      vertex -6 53 0
      vertex 22.17 36.95 0
      vertex 9.99 36.95 0
    endloop
  endfacet
  facet normal 0 0 -1
    outer loop
      vertex 99.17 43.3 0
      vertex -6 53 0
      vertex 204 53 0
    endloop
  endfacet
  facet normal 0 0 -1
    outer loop
      vertex 22.17 36.95 0
      vertex -6 53 0
      vertex 46.99 43.3 0
    endloop
  endfacet
  facet normal 0 0 -1
    outer loop
      vertex 3 32.5 0
      vertex -6 53 0
      vertex 9.99 36.95 0
    endloop
  endfacet
  facet normal 0 0 -1
    outer loop
      vertex -6 53 0
      vertex 3 32.5 0
      vertex -6 -12 0
    endloop
  endfacet
  facet normal -0 0 -1
    outer loop
      vertex 196.46 5.45 0
      vertex 194.05 1 0
      vertex 194.05 5.45 0
    endloop
  endfacet
  facet normal -0 0 -1
    outer loop
      vertex 173.46 5.45 0
      vertex 171.05 1 0
      vertex 171.05 5.45 0
    endloop
  endfacet
  facet normal 0 -1 0
    outer loop
      vertex -6 -12 40
      vertex 204 -12 41.3
      vertex -6 -12 41.3
    endloop
  endfacet
  facet normal 0 -1 0
    outer loop
      vertex -6 -12 0
      vertex 204 -12 41.3
      vertex -6 -12 40
    endloop
  endfacet
  facet normal 0 -1 -0
    outer loop
      vertex 204 -12 41.3
      vertex -6 -12 0
      vertex 204 -12 0
    endloop
  endfacet
  facet normal 0 1 -0
    outer loop
      vertex 204 53 0
      vertex 202 53 2
      vertex 204 53 2
    endloop
  endfacet
  facet normal 0 1 0
    outer loop
      vertex 202 53 2
      vertex 204 53 0
      vertex -4 53 2
    endloop
  endfacet
  facet normal 0 1 0
    outer loop
      vertex -6 53 0
      vertex -4 53 2
      vertex 204 53 0
    endloop
  endfacet
  facet normal 0 1 0
    outer loop
      vertex -4 53 2
      vertex -6 53 0
      vertex -6 53 2
    endloop
  endfacet
  facet normal 0 1 -0
    outer loop
      vertex 202 -10 10
      vertex -4 -10 37.3
      vertex 202 -10 37.3
    endloop
  endfacet
  facet normal 0 1 0
    outer loop
      vertex -4 -10 37.3
      vertex 202 -10 10
      vertex -4 -10 10
    endloop
  endfacet
  facet normal 0 0.707107 0.707107
    outer loop
      vertex 202 -2 2
      vertex -4 -10 10
      vertex 202 -10 10
    endloop
  endfacet
  facet normal 0 0.707107 0.707107
    outer loop
      vertex -4 -10 10
      vertex 202 -2 2
      vertex -4 -2 2
    endloop
  endfacet
  facet normal -1 1.43868e-07 0
    outer loop
      vertex -6 46.36 2
      vertex -6 52.9888 2.00071
      vertex -6 52.9888 2
    endloop
  endfacet
  facet normal -1 1.43868e-07 0
    outer loop
      vertex -6 52.9888 2.00071
      vertex -6 46.36 2
      vertex -6 46.36 6
    endloop
  endfacet
  facet normal -0 0.516584 0.856237
    outer loop
      vertex -4 52.99 2
      vertex 202 46.36 6
      vertex 202 52.99 2
    endloop
  endfacet
  facet normal 0 0.516584 0.856237
    outer loop
      vertex 202 46.36 6
      vertex -4 52.99 2
      vertex -4 46.36 6
    endloop
  endfacet
  facet normal 0 -1 0
    outer loop
      vertex -4 46.36 2
      vertex 202 46.36 6
      vertex -4 46.36 6
    endloop
  endfacet
  facet normal 0 -1 -0
    outer loop
      vertex 202 46.36 6
      vertex -4 46.36 2
      vertex 202 46.36 2
    endloop
  endfacet
  facet normal -1 0 -1.76606e-07
    outer loop
      vertex -6 -10 40
      vertex -6 -5.37001 37.3
      vertex -6 -5.52368 37.3
    endloop
  endfacet
  facet normal -1 -1.0785e-06 -2.02603e-06
    outer loop
      vertex -6 -10 40
      vertex -6 -12 41.3
      vertex -6 -5.37001 37.3
    endloop
  endfacet
  facet normal -1 2.38419e-07 0
    outer loop
      vertex -6 -12 41.3
      vertex -6 -10 40
      vertex -6 -12 40
    endloop
  endfacet
  facet normal -0 0.516584 0.856237
    outer loop
      vertex -6 -5.37001 37.3
      vertex 204 -12 41.3
      vertex 204 -5.37001 37.3
    endloop
  endfacet
  facet normal 0 0.516584 0.856237
    outer loop
      vertex 204 -12 41.3
      vertex -6 -5.37001 37.3
      vertex -6 -12 41.3
    endloop
  endfacet
  facet normal 0 0 -1
    outer loop
      vertex 202 -10 37.3
      vertex -4 -10 37.3
      vertex 202 -5.52368 37.3
    endloop
  endfacet
  facet normal 0 0 -1
    outer loop
      vertex 202 -5.52368 37.3
      vertex 204 -5.37001 37.3
      vertex 204 -5.52368 37.3
    endloop
  endfacet
  facet normal 0 0 -1
    outer loop
      vertex -4 -5.52368 37.3
      vertex 202 -5.52368 37.3
      vertex -4 -10 37.3
    endloop
  endfacet
  facet normal 0 0 -1
    outer loop
      vertex 202 -5.52368 37.3
      vertex -4 -5.52368 37.3
      vertex 204 -5.37001 37.3
    endloop
  endfacet
  facet normal 0 0 -1
    outer loop
      vertex -6 -5.37001 37.3
      vertex -4 -5.52368 37.3
      vertex -6 -5.52368 37.3
    endloop
  endfacet
  facet normal 0 0 -1
    outer loop
      vertex -4 -5.52368 37.3
      vertex -6 -5.37001 37.3
      vertex 204 -5.37001 37.3
    endloop
  endfacet
  facet normal -1 1.69211e-08 0
    outer loop
      vertex -6 46.36 2
      vertex -6 -10 2
      vertex -6 46.36 6
    endloop
  endfacet
  facet normal -1 0 0
    outer loop
      vertex -6 52.9888 2.00071
      vertex -6 53 2
      vertex -6 52.9888 2
    endloop
  endfacet
  facet normal -1 0 0
    outer loop
      vertex -6 46.36 6
      vertex -6 53 2
      vertex -6 52.9888 2.00071
    endloop
  endfacet
  facet normal -1 -1.19218e-05 -1.97902e-05
    outer loop
      vertex -6 46.36 6
      vertex -6 -10 40
      vertex -6 53 2
    endloop
  endfacet
  facet normal -1 1.69211e-08 0
    outer loop
      vertex -6 -10 40
      vertex -6 46.36 6
      vertex -6 -10 2
    endloop
  endfacet
  facet normal -0 0.516493 0.856291
    outer loop
      vertex -6 53 2
      vertex -4 -5.52368 37.3
      vertex -4 53 2
    endloop
  endfacet
  facet normal 0 0.516493 0.856291
    outer loop
      vertex -6 53 2
      vertex -6 -5.52368 37.3
      vertex -4 -5.52368 37.3
    endloop
  endfacet
  facet normal 0.0729627 0.515117 0.854009
    outer loop
      vertex -6 -10 40
      vertex -6 -5.52368 37.3
      vertex -6 53 2
    endloop
  endfacet
  facet normal 1 0 0
    outer loop
      vertex -4 53 2
      vertex -4 46.36 6
      vertex -4 52.99 2
    endloop
  endfacet
  facet normal 1 -1.47902e-08 0
    outer loop
      vertex -4 46.36 6
      vertex -4 -2 2
      vertex -4 46.36 2
    endloop
  endfacet
  facet normal 1 1.28337e-05 2.13039e-05
    outer loop
      vertex -4 -5.52368 37.3
      vertex -4 46.36 6
      vertex -4 53 2
    endloop
  endfacet
  facet normal 1 -1.52232e-08 5.23447e-09
    outer loop
      vertex -4 -5.52368 37.3
      vertex -4 -2 2
      vertex -4 46.36 6
    endloop
  endfacet
  facet normal 1 0 0
    outer loop
      vertex -4 -10 10
      vertex -4 -5.52368 37.3
      vertex -4 -10 37.3
    endloop
  endfacet
  facet normal 1 -2.56041e-08 4.19824e-09
    outer loop
      vertex -4 -5.52368 37.3
      vertex -4 -10 10
      vertex -4 -2 2
    endloop
  endfacet
  facet normal -1 0 0
    outer loop
      vertex 202 46.36 2
      vertex 202 -2 2
      vertex 202 46.36 6
    endloop
  endfacet
  facet normal -1 0 0
    outer loop
      vertex 202 46.36 6
      vertex 202 53 2
      vertex 202 52.99 2
    endloop
  endfacet
  facet normal -1 0 0
    outer loop
      vertex 202 46.36 6
      vertex 202 -5.52368 37.3
      vertex 202 53 2
    endloop
  endfacet
  facet normal -1 0 0
    outer loop
      vertex 202 -2 2
      vertex 202 -5.52368 37.3
      vertex 202 46.36 6
    endloop
  endfacet
  facet normal -1 0 0
    outer loop
      vertex 202 -10 10
      vertex 202 -5.52368 37.3
      vertex 202 -2 2
    endloop
  endfacet
  facet normal -1 -0 0
    outer loop
      vertex 202 -5.52368 37.3
      vertex 202 -10 10
      vertex 202 -10 37.3
    endloop
  endfacet
  facet normal -0 0.516493 0.856291
    outer loop
      vertex 202 53 2
      vertex 204 -5.52368 37.3
      vertex 204 53 2
    endloop
  endfacet
  facet normal 0 0.516493 0.856291
    outer loop
      vertex 204 -5.52368 37.3
      vertex 202 53 2
      vertex 202 -5.52368 37.3
    endloop
  endfacet
endsolid OpenSCAD_Model
